G04 #@! TF.GenerationSoftware,KiCad,Pcbnew,(5.1.7)-1*
G04 #@! TF.CreationDate,2021-03-17T14:08:25-05:00*
G04 #@! TF.ProjectId,keyboard,6b657962-6f61-4726-942e-6b696361645f,rev?*
G04 #@! TF.SameCoordinates,Original*
G04 #@! TF.FileFunction,OtherDrawing,Comment*
%FSLAX46Y46*%
G04 Gerber Fmt 4.6, Leading zero omitted, Abs format (unit mm)*
G04 Created by KiCad (PCBNEW (5.1.7)-1) date 2021-03-17 14:08:25*
%MOMM*%
%LPD*%
G01*
G04 APERTURE LIST*
%ADD10C,0.150000*%
%ADD11C,0.120000*%
G04 APERTURE END LIST*
D10*
X312428571Y-193272380D02*
X311857142Y-193272380D01*
X312142857Y-193272380D02*
X312142857Y-192272380D01*
X312047619Y-192415238D01*
X311952380Y-192510476D01*
X311857142Y-192558095D01*
X312761904Y-192272380D02*
X313428571Y-192272380D01*
X313000000Y-193272380D01*
X313809523Y-193177142D02*
X313857142Y-193224761D01*
X313809523Y-193272380D01*
X313761904Y-193224761D01*
X313809523Y-193177142D01*
X313809523Y-193272380D01*
X314428571Y-192700952D02*
X314333333Y-192653333D01*
X314285714Y-192605714D01*
X314238095Y-192510476D01*
X314238095Y-192462857D01*
X314285714Y-192367619D01*
X314333333Y-192320000D01*
X314428571Y-192272380D01*
X314619047Y-192272380D01*
X314714285Y-192320000D01*
X314761904Y-192367619D01*
X314809523Y-192462857D01*
X314809523Y-192510476D01*
X314761904Y-192605714D01*
X314714285Y-192653333D01*
X314619047Y-192700952D01*
X314428571Y-192700952D01*
X314333333Y-192748571D01*
X314285714Y-192796190D01*
X314238095Y-192891428D01*
X314238095Y-193081904D01*
X314285714Y-193177142D01*
X314333333Y-193224761D01*
X314428571Y-193272380D01*
X314619047Y-193272380D01*
X314714285Y-193224761D01*
X314761904Y-193177142D01*
X314809523Y-193081904D01*
X314809523Y-192891428D01*
X314761904Y-192796190D01*
X314714285Y-192748571D01*
X314619047Y-192700952D01*
X315428571Y-192272380D02*
X315523809Y-192272380D01*
X315619047Y-192320000D01*
X315666666Y-192367619D01*
X315714285Y-192462857D01*
X315761904Y-192653333D01*
X315761904Y-192891428D01*
X315714285Y-193081904D01*
X315666666Y-193177142D01*
X315619047Y-193224761D01*
X315523809Y-193272380D01*
X315428571Y-193272380D01*
X315333333Y-193224761D01*
X315285714Y-193177142D01*
X315238095Y-193081904D01*
X315190476Y-192891428D01*
X315190476Y-192653333D01*
X315238095Y-192462857D01*
X315285714Y-192367619D01*
X315333333Y-192320000D01*
X315428571Y-192272380D01*
X316380952Y-192272380D02*
X316476190Y-192272380D01*
X316571428Y-192320000D01*
X316619047Y-192367619D01*
X316666666Y-192462857D01*
X316714285Y-192653333D01*
X316714285Y-192891428D01*
X316666666Y-193081904D01*
X316619047Y-193177142D01*
X316571428Y-193224761D01*
X316476190Y-193272380D01*
X316380952Y-193272380D01*
X316285714Y-193224761D01*
X316238095Y-193177142D01*
X316190476Y-193081904D01*
X316142857Y-192891428D01*
X316142857Y-192653333D01*
X316190476Y-192462857D01*
X316238095Y-192367619D01*
X316285714Y-192320000D01*
X316380952Y-192272380D01*
X317904761Y-193272380D02*
X317904761Y-192605714D01*
X317904761Y-192700952D02*
X317952380Y-192653333D01*
X318047619Y-192605714D01*
X318190476Y-192605714D01*
X318285714Y-192653333D01*
X318333333Y-192748571D01*
X318333333Y-193272380D01*
X318333333Y-192748571D02*
X318380952Y-192653333D01*
X318476190Y-192605714D01*
X318619047Y-192605714D01*
X318714285Y-192653333D01*
X318761904Y-192748571D01*
X318761904Y-193272380D01*
X319238095Y-193272380D02*
X319238095Y-192605714D01*
X319238095Y-192700952D02*
X319285714Y-192653333D01*
X319380952Y-192605714D01*
X319523809Y-192605714D01*
X319619047Y-192653333D01*
X319666666Y-192748571D01*
X319666666Y-193272380D01*
X319666666Y-192748571D02*
X319714285Y-192653333D01*
X319809523Y-192605714D01*
X319952380Y-192605714D01*
X320047619Y-192653333D01*
X320095238Y-192748571D01*
X320095238Y-193272380D01*
D11*
X307100000Y-191550000D02*
X324900000Y-191550000D01*
X307100000Y-188750000D02*
X307100000Y-192136421D01*
X324900000Y-188750000D02*
X324900000Y-192136421D01*
X324900000Y-191550000D02*
X323773496Y-192136421D01*
X324900000Y-191550000D02*
X323773496Y-190963579D01*
X307100000Y-191550000D02*
X308226504Y-192136421D01*
X307100000Y-191550000D02*
X308226504Y-190963579D01*
D10*
X312428571Y-153262380D02*
X311857142Y-153262380D01*
X312142857Y-153262380D02*
X312142857Y-152262380D01*
X312047619Y-152405238D01*
X311952380Y-152500476D01*
X311857142Y-152548095D01*
X313000000Y-152690952D02*
X312904761Y-152643333D01*
X312857142Y-152595714D01*
X312809523Y-152500476D01*
X312809523Y-152452857D01*
X312857142Y-152357619D01*
X312904761Y-152310000D01*
X313000000Y-152262380D01*
X313190476Y-152262380D01*
X313285714Y-152310000D01*
X313333333Y-152357619D01*
X313380952Y-152452857D01*
X313380952Y-152500476D01*
X313333333Y-152595714D01*
X313285714Y-152643333D01*
X313190476Y-152690952D01*
X313000000Y-152690952D01*
X312904761Y-152738571D01*
X312857142Y-152786190D01*
X312809523Y-152881428D01*
X312809523Y-153071904D01*
X312857142Y-153167142D01*
X312904761Y-153214761D01*
X313000000Y-153262380D01*
X313190476Y-153262380D01*
X313285714Y-153214761D01*
X313333333Y-153167142D01*
X313380952Y-153071904D01*
X313380952Y-152881428D01*
X313333333Y-152786190D01*
X313285714Y-152738571D01*
X313190476Y-152690952D01*
X313809523Y-153167142D02*
X313857142Y-153214761D01*
X313809523Y-153262380D01*
X313761904Y-153214761D01*
X313809523Y-153167142D01*
X313809523Y-153262380D01*
X314809523Y-153262380D02*
X314238095Y-153262380D01*
X314523809Y-153262380D02*
X314523809Y-152262380D01*
X314428571Y-152405238D01*
X314333333Y-152500476D01*
X314238095Y-152548095D01*
X315666666Y-152262380D02*
X315476190Y-152262380D01*
X315380952Y-152310000D01*
X315333333Y-152357619D01*
X315238095Y-152500476D01*
X315190476Y-152690952D01*
X315190476Y-153071904D01*
X315238095Y-153167142D01*
X315285714Y-153214761D01*
X315380952Y-153262380D01*
X315571428Y-153262380D01*
X315666666Y-153214761D01*
X315714285Y-153167142D01*
X315761904Y-153071904D01*
X315761904Y-152833809D01*
X315714285Y-152738571D01*
X315666666Y-152690952D01*
X315571428Y-152643333D01*
X315380952Y-152643333D01*
X315285714Y-152690952D01*
X315238095Y-152738571D01*
X315190476Y-152833809D01*
X316380952Y-152262380D02*
X316476190Y-152262380D01*
X316571428Y-152310000D01*
X316619047Y-152357619D01*
X316666666Y-152452857D01*
X316714285Y-152643333D01*
X316714285Y-152881428D01*
X316666666Y-153071904D01*
X316619047Y-153167142D01*
X316571428Y-153214761D01*
X316476190Y-153262380D01*
X316380952Y-153262380D01*
X316285714Y-153214761D01*
X316238095Y-153167142D01*
X316190476Y-153071904D01*
X316142857Y-152881428D01*
X316142857Y-152643333D01*
X316190476Y-152452857D01*
X316238095Y-152357619D01*
X316285714Y-152310000D01*
X316380952Y-152262380D01*
X317904761Y-153262380D02*
X317904761Y-152595714D01*
X317904761Y-152690952D02*
X317952380Y-152643333D01*
X318047619Y-152595714D01*
X318190476Y-152595714D01*
X318285714Y-152643333D01*
X318333333Y-152738571D01*
X318333333Y-153262380D01*
X318333333Y-152738571D02*
X318380952Y-152643333D01*
X318476190Y-152595714D01*
X318619047Y-152595714D01*
X318714285Y-152643333D01*
X318761904Y-152738571D01*
X318761904Y-153262380D01*
X319238095Y-153262380D02*
X319238095Y-152595714D01*
X319238095Y-152690952D02*
X319285714Y-152643333D01*
X319380952Y-152595714D01*
X319523809Y-152595714D01*
X319619047Y-152643333D01*
X319666666Y-152738571D01*
X319666666Y-153262380D01*
X319666666Y-152738571D02*
X319714285Y-152643333D01*
X319809523Y-152595714D01*
X319952380Y-152595714D01*
X320047619Y-152643333D01*
X320095238Y-152738571D01*
X320095238Y-153262380D01*
D11*
X306920000Y-154080000D02*
X325080000Y-154080000D01*
X306920000Y-158300000D02*
X306920000Y-153493579D01*
X325080000Y-158300000D02*
X325080000Y-153493579D01*
X325080000Y-154080000D02*
X323953496Y-154666421D01*
X325080000Y-154080000D02*
X323953496Y-153493579D01*
X306920000Y-154080000D02*
X308046504Y-154666421D01*
X306920000Y-154080000D02*
X308046504Y-153493579D01*
D10*
X312428571Y-193272380D02*
X311857142Y-193272380D01*
X312142857Y-193272380D02*
X312142857Y-192272380D01*
X312047619Y-192415238D01*
X311952380Y-192510476D01*
X311857142Y-192558095D01*
X312761904Y-192272380D02*
X313428571Y-192272380D01*
X313000000Y-193272380D01*
X313809523Y-193177142D02*
X313857142Y-193224761D01*
X313809523Y-193272380D01*
X313761904Y-193224761D01*
X313809523Y-193177142D01*
X313809523Y-193272380D01*
X314428571Y-192700952D02*
X314333333Y-192653333D01*
X314285714Y-192605714D01*
X314238095Y-192510476D01*
X314238095Y-192462857D01*
X314285714Y-192367619D01*
X314333333Y-192320000D01*
X314428571Y-192272380D01*
X314619047Y-192272380D01*
X314714285Y-192320000D01*
X314761904Y-192367619D01*
X314809523Y-192462857D01*
X314809523Y-192510476D01*
X314761904Y-192605714D01*
X314714285Y-192653333D01*
X314619047Y-192700952D01*
X314428571Y-192700952D01*
X314333333Y-192748571D01*
X314285714Y-192796190D01*
X314238095Y-192891428D01*
X314238095Y-193081904D01*
X314285714Y-193177142D01*
X314333333Y-193224761D01*
X314428571Y-193272380D01*
X314619047Y-193272380D01*
X314714285Y-193224761D01*
X314761904Y-193177142D01*
X314809523Y-193081904D01*
X314809523Y-192891428D01*
X314761904Y-192796190D01*
X314714285Y-192748571D01*
X314619047Y-192700952D01*
X315428571Y-192272380D02*
X315523809Y-192272380D01*
X315619047Y-192320000D01*
X315666666Y-192367619D01*
X315714285Y-192462857D01*
X315761904Y-192653333D01*
X315761904Y-192891428D01*
X315714285Y-193081904D01*
X315666666Y-193177142D01*
X315619047Y-193224761D01*
X315523809Y-193272380D01*
X315428571Y-193272380D01*
X315333333Y-193224761D01*
X315285714Y-193177142D01*
X315238095Y-193081904D01*
X315190476Y-192891428D01*
X315190476Y-192653333D01*
X315238095Y-192462857D01*
X315285714Y-192367619D01*
X315333333Y-192320000D01*
X315428571Y-192272380D01*
X316380952Y-192272380D02*
X316476190Y-192272380D01*
X316571428Y-192320000D01*
X316619047Y-192367619D01*
X316666666Y-192462857D01*
X316714285Y-192653333D01*
X316714285Y-192891428D01*
X316666666Y-193081904D01*
X316619047Y-193177142D01*
X316571428Y-193224761D01*
X316476190Y-193272380D01*
X316380952Y-193272380D01*
X316285714Y-193224761D01*
X316238095Y-193177142D01*
X316190476Y-193081904D01*
X316142857Y-192891428D01*
X316142857Y-192653333D01*
X316190476Y-192462857D01*
X316238095Y-192367619D01*
X316285714Y-192320000D01*
X316380952Y-192272380D01*
X317904761Y-193272380D02*
X317904761Y-192605714D01*
X317904761Y-192700952D02*
X317952380Y-192653333D01*
X318047619Y-192605714D01*
X318190476Y-192605714D01*
X318285714Y-192653333D01*
X318333333Y-192748571D01*
X318333333Y-193272380D01*
X318333333Y-192748571D02*
X318380952Y-192653333D01*
X318476190Y-192605714D01*
X318619047Y-192605714D01*
X318714285Y-192653333D01*
X318761904Y-192748571D01*
X318761904Y-193272380D01*
X319238095Y-193272380D02*
X319238095Y-192605714D01*
X319238095Y-192700952D02*
X319285714Y-192653333D01*
X319380952Y-192605714D01*
X319523809Y-192605714D01*
X319619047Y-192653333D01*
X319666666Y-192748571D01*
X319666666Y-193272380D01*
X319666666Y-192748571D02*
X319714285Y-192653333D01*
X319809523Y-192605714D01*
X319952380Y-192605714D01*
X320047619Y-192653333D01*
X320095238Y-192748571D01*
X320095238Y-193272380D01*
D11*
X307100000Y-191550000D02*
X324900000Y-191550000D01*
X307100000Y-188750000D02*
X307100000Y-192136421D01*
X324900000Y-188750000D02*
X324900000Y-192136421D01*
X324900000Y-191550000D02*
X323773496Y-192136421D01*
X324900000Y-191550000D02*
X323773496Y-190963579D01*
X307100000Y-191550000D02*
X308226504Y-192136421D01*
X307100000Y-191550000D02*
X308226504Y-190963579D01*
D10*
X320470000Y-161500000D02*
X311530000Y-161500000D01*
X311530000Y-154200000D02*
X311530000Y-161500000D01*
X320470000Y-154200000D02*
X320470000Y-161500000D01*
X320470000Y-154200000D02*
X311530000Y-154200000D01*
X306857142Y-153502380D02*
X306857142Y-152502380D01*
X306857142Y-152978571D02*
X307428571Y-152978571D01*
X307428571Y-153502380D02*
X307428571Y-152502380D01*
X308476190Y-153502380D02*
X308142857Y-153026190D01*
X307904761Y-153502380D02*
X307904761Y-152502380D01*
X308285714Y-152502380D01*
X308380952Y-152550000D01*
X308428571Y-152597619D01*
X308476190Y-152692857D01*
X308476190Y-152835714D01*
X308428571Y-152930952D01*
X308380952Y-152978571D01*
X308285714Y-153026190D01*
X307904761Y-153026190D01*
X309095238Y-152502380D02*
X309285714Y-152502380D01*
X309380952Y-152550000D01*
X309476190Y-152645238D01*
X309523809Y-152835714D01*
X309523809Y-153169047D01*
X309476190Y-153359523D01*
X309380952Y-153454761D01*
X309285714Y-153502380D01*
X309095238Y-153502380D01*
X309000000Y-153454761D01*
X308904761Y-153359523D01*
X308857142Y-153169047D01*
X308857142Y-152835714D01*
X308904761Y-152645238D01*
X309000000Y-152550000D01*
X309095238Y-152502380D01*
X309952380Y-153121428D02*
X310714285Y-153121428D01*
X311047619Y-152502380D02*
X311619047Y-152502380D01*
X311333333Y-153502380D02*
X311333333Y-152502380D01*
X312142857Y-153026190D02*
X312142857Y-153502380D01*
X311809523Y-152502380D02*
X312142857Y-153026190D01*
X312476190Y-152502380D01*
X312809523Y-153502380D02*
X312809523Y-152502380D01*
X313190476Y-152502380D01*
X313285714Y-152550000D01*
X313333333Y-152597619D01*
X313380952Y-152692857D01*
X313380952Y-152835714D01*
X313333333Y-152930952D01*
X313285714Y-152978571D01*
X313190476Y-153026190D01*
X312809523Y-153026190D01*
X313809523Y-152978571D02*
X314142857Y-152978571D01*
X314285714Y-153502380D02*
X313809523Y-153502380D01*
X313809523Y-152502380D01*
X314285714Y-152502380D01*
X314714285Y-153121428D02*
X315476190Y-153121428D01*
X316523809Y-153407142D02*
X316476190Y-153454761D01*
X316333333Y-153502380D01*
X316238095Y-153502380D01*
X316095238Y-153454761D01*
X316000000Y-153359523D01*
X315952380Y-153264285D01*
X315904761Y-153073809D01*
X315904761Y-152930952D01*
X315952380Y-152740476D01*
X316000000Y-152645238D01*
X316095238Y-152550000D01*
X316238095Y-152502380D01*
X316333333Y-152502380D01*
X316476190Y-152550000D01*
X316523809Y-152597619D01*
X316952380Y-153121428D02*
X317714285Y-153121428D01*
X318095238Y-152502380D02*
X318714285Y-152502380D01*
X318380952Y-152883333D01*
X318523809Y-152883333D01*
X318619047Y-152930952D01*
X318666666Y-152978571D01*
X318714285Y-153073809D01*
X318714285Y-153311904D01*
X318666666Y-153407142D01*
X318619047Y-153454761D01*
X318523809Y-153502380D01*
X318238095Y-153502380D01*
X318142857Y-153454761D01*
X318095238Y-153407142D01*
X319666666Y-153502380D02*
X319095238Y-153502380D01*
X319380952Y-153502380D02*
X319380952Y-152502380D01*
X319285714Y-152645238D01*
X319190476Y-152740476D01*
X319095238Y-152788095D01*
X320095238Y-153121428D02*
X320857142Y-153121428D01*
X321333333Y-153502380D02*
X321333333Y-152502380D01*
X321666666Y-153216666D01*
X322000000Y-152502380D01*
X322000000Y-153502380D01*
X322476190Y-153121428D02*
X323238095Y-153121428D01*
X324238095Y-153502380D02*
X323666666Y-153502380D01*
X323952380Y-153502380D02*
X323952380Y-152502380D01*
X323857142Y-152645238D01*
X323761904Y-152740476D01*
X323666666Y-152788095D01*
X324619047Y-152597619D02*
X324666666Y-152550000D01*
X324761904Y-152502380D01*
X325000000Y-152502380D01*
X325095238Y-152550000D01*
X325142857Y-152597619D01*
X325190476Y-152692857D01*
X325190476Y-152788095D01*
X325142857Y-152930952D01*
X324571428Y-153502380D01*
X325190476Y-153502380D01*
M02*
