G04 #@! TF.GenerationSoftware,KiCad,Pcbnew,(5.1.7)-1*
G04 #@! TF.CreationDate,2021-03-17T14:13:32-05:00*
G04 #@! TF.ProjectId,keyboard,6b657962-6f61-4726-942e-6b696361645f,rev?*
G04 #@! TF.SameCoordinates,Original*
G04 #@! TF.FileFunction,Legend,Bot*
G04 #@! TF.FilePolarity,Positive*
%FSLAX46Y46*%
G04 Gerber Fmt 4.6, Leading zero omitted, Abs format (unit mm)*
G04 Created by KiCad (PCBNEW (5.1.7)-1) date 2021-03-17 14:13:32*
%MOMM*%
%LPD*%
G01*
G04 APERTURE LIST*
%ADD10C,0.150000*%
G04 APERTURE END LIST*
D10*
X316552380Y-169338095D02*
X315552380Y-169338095D01*
X316552380Y-169909523D02*
X315980952Y-169480952D01*
X315552380Y-169909523D02*
X316123809Y-169338095D01*
X316028571Y-171100000D02*
X316028571Y-171433333D01*
X316552380Y-171576190D02*
X316552380Y-171100000D01*
X315552380Y-171100000D01*
X315552380Y-171576190D01*
X316076190Y-172957142D02*
X316552380Y-172957142D01*
X315552380Y-172623809D02*
X316076190Y-172957142D01*
X315552380Y-173290476D01*
X316028571Y-174719047D02*
X316076190Y-174861904D01*
X316123809Y-174909523D01*
X316219047Y-174957142D01*
X316361904Y-174957142D01*
X316457142Y-174909523D01*
X316504761Y-174861904D01*
X316552380Y-174766666D01*
X316552380Y-174385714D01*
X315552380Y-174385714D01*
X315552380Y-174719047D01*
X315600000Y-174814285D01*
X315647619Y-174861904D01*
X315742857Y-174909523D01*
X315838095Y-174909523D01*
X315933333Y-174861904D01*
X315980952Y-174814285D01*
X316028571Y-174719047D01*
X316028571Y-174385714D01*
X315552380Y-176338095D02*
X315552380Y-176528571D01*
X315600000Y-176623809D01*
X315695238Y-176719047D01*
X315885714Y-176766666D01*
X316219047Y-176766666D01*
X316409523Y-176719047D01*
X316504761Y-176623809D01*
X316552380Y-176528571D01*
X316552380Y-176338095D01*
X316504761Y-176242857D01*
X316409523Y-176147619D01*
X316219047Y-176100000D01*
X315885714Y-176100000D01*
X315695238Y-176147619D01*
X315600000Y-176242857D01*
X315552380Y-176338095D01*
X316266666Y-177909523D02*
X316266666Y-178385714D01*
X316552380Y-177814285D02*
X315552380Y-178147619D01*
X316552380Y-178480952D01*
X316552380Y-180147619D02*
X316076190Y-179814285D01*
X316552380Y-179576190D02*
X315552380Y-179576190D01*
X315552380Y-179957142D01*
X315600000Y-180052380D01*
X315647619Y-180100000D01*
X315742857Y-180147619D01*
X315885714Y-180147619D01*
X315980952Y-180100000D01*
X316028571Y-180052380D01*
X316076190Y-179957142D01*
X316076190Y-179576190D01*
X316552380Y-181338095D02*
X315552380Y-181338095D01*
X315552380Y-181576190D01*
X315600000Y-181719047D01*
X315695238Y-181814285D01*
X315790476Y-181861904D01*
X315980952Y-181909523D01*
X316123809Y-181909523D01*
X316314285Y-181861904D01*
X316409523Y-181814285D01*
X316504761Y-181719047D01*
X316552380Y-181576190D01*
X316552380Y-181338095D01*
X320990476Y-158185714D02*
X320990476Y-159185714D01*
X320990476Y-158233333D02*
X320895238Y-158185714D01*
X320704761Y-158185714D01*
X320609523Y-158233333D01*
X320561904Y-158280952D01*
X320514285Y-158376190D01*
X320514285Y-158661904D01*
X320561904Y-158757142D01*
X320609523Y-158804761D01*
X320704761Y-158852380D01*
X320895238Y-158852380D01*
X320990476Y-158804761D01*
X320085714Y-158852380D02*
X320085714Y-158185714D01*
X320085714Y-158376190D02*
X320038095Y-158280952D01*
X319990476Y-158233333D01*
X319895238Y-158185714D01*
X319800000Y-158185714D01*
X319323809Y-158852380D02*
X319419047Y-158804761D01*
X319466666Y-158757142D01*
X319514285Y-158661904D01*
X319514285Y-158376190D01*
X319466666Y-158280952D01*
X319419047Y-158233333D01*
X319323809Y-158185714D01*
X319180952Y-158185714D01*
X319085714Y-158233333D01*
X319038095Y-158280952D01*
X318990476Y-158376190D01*
X318990476Y-158661904D01*
X319038095Y-158757142D01*
X319085714Y-158804761D01*
X319180952Y-158852380D01*
X319323809Y-158852380D01*
X317800000Y-158852380D02*
X317800000Y-158185714D01*
X317800000Y-158280952D02*
X317752380Y-158233333D01*
X317657142Y-158185714D01*
X317514285Y-158185714D01*
X317419047Y-158233333D01*
X317371428Y-158328571D01*
X317371428Y-158852380D01*
X317371428Y-158328571D02*
X317323809Y-158233333D01*
X317228571Y-158185714D01*
X317085714Y-158185714D01*
X316990476Y-158233333D01*
X316942857Y-158328571D01*
X316942857Y-158852380D01*
X316466666Y-158852380D02*
X316466666Y-158185714D01*
X316466666Y-157852380D02*
X316514285Y-157900000D01*
X316466666Y-157947619D01*
X316419047Y-157900000D01*
X316466666Y-157852380D01*
X316466666Y-157947619D01*
X315561904Y-158804761D02*
X315657142Y-158852380D01*
X315847619Y-158852380D01*
X315942857Y-158804761D01*
X315990476Y-158757142D01*
X316038095Y-158661904D01*
X316038095Y-158376190D01*
X315990476Y-158280952D01*
X315942857Y-158233333D01*
X315847619Y-158185714D01*
X315657142Y-158185714D01*
X315561904Y-158233333D01*
X315133333Y-158852380D02*
X315133333Y-158185714D01*
X315133333Y-158376190D02*
X315085714Y-158280952D01*
X315038095Y-158233333D01*
X314942857Y-158185714D01*
X314847619Y-158185714D01*
X314371428Y-158852380D02*
X314466666Y-158804761D01*
X314514285Y-158757142D01*
X314561904Y-158661904D01*
X314561904Y-158376190D01*
X314514285Y-158280952D01*
X314466666Y-158233333D01*
X314371428Y-158185714D01*
X314228571Y-158185714D01*
X314133333Y-158233333D01*
X314085714Y-158280952D01*
X314038095Y-158376190D01*
X314038095Y-158661904D01*
X314085714Y-158757142D01*
X314133333Y-158804761D01*
X314228571Y-158852380D01*
X314371428Y-158852380D01*
X312847619Y-158852380D02*
X312847619Y-157852380D01*
X312847619Y-158233333D02*
X312752380Y-158185714D01*
X312561904Y-158185714D01*
X312466666Y-158233333D01*
X312419047Y-158280952D01*
X312371428Y-158376190D01*
X312371428Y-158661904D01*
X312419047Y-158757142D01*
X312466666Y-158804761D01*
X312561904Y-158852380D01*
X312752380Y-158852380D01*
X312847619Y-158804761D01*
X311514285Y-158852380D02*
X311514285Y-158328571D01*
X311561904Y-158233333D01*
X311657142Y-158185714D01*
X311847619Y-158185714D01*
X311942857Y-158233333D01*
X311514285Y-158804761D02*
X311609523Y-158852380D01*
X311847619Y-158852380D01*
X311942857Y-158804761D01*
X311990476Y-158709523D01*
X311990476Y-158614285D01*
X311942857Y-158519047D01*
X311847619Y-158471428D01*
X311609523Y-158471428D01*
X311514285Y-158423809D01*
X310609523Y-158852380D02*
X310609523Y-157852380D01*
X310609523Y-158804761D02*
X310704761Y-158852380D01*
X310895238Y-158852380D01*
X310990476Y-158804761D01*
X311038095Y-158757142D01*
X311085714Y-158661904D01*
X311085714Y-158376190D01*
X311038095Y-158280952D01*
X310990476Y-158233333D01*
X310895238Y-158185714D01*
X310704761Y-158185714D01*
X310609523Y-158233333D01*
M02*
