G04 #@! TF.GenerationSoftware,KiCad,Pcbnew,(5.1.7)-1*
G04 #@! TF.CreationDate,2021-03-17T14:13:32-05:00*
G04 #@! TF.ProjectId,keyboard,6b657962-6f61-4726-942e-6b696361645f,rev?*
G04 #@! TF.SameCoordinates,Original*
G04 #@! TF.FileFunction,Other,User*
%FSLAX46Y46*%
G04 Gerber Fmt 4.6, Leading zero omitted, Abs format (unit mm)*
G04 Created by KiCad (PCBNEW (5.1.7)-1) date 2021-03-17 14:13:32*
%MOMM*%
%LPD*%
G01*
G04 APERTURE LIST*
%ADD10C,0.050000*%
%ADD11C,0.150000*%
G04 APERTURE END LIST*
D10*
X325420000Y-189270000D02*
X321870000Y-189270000D01*
X321870000Y-189270000D02*
X321870000Y-157770000D01*
X321870000Y-157770000D02*
X325420000Y-157770000D01*
X325420000Y-157770000D02*
X325420000Y-189270000D01*
X309277500Y-169877500D02*
X309277500Y-183277500D01*
X322677500Y-169877500D02*
X322677500Y-183277500D01*
X309277500Y-169877500D02*
X322677500Y-169877500D01*
X309277500Y-183277500D02*
X322677500Y-183277500D01*
X316760000Y-164990000D02*
X315840000Y-164990000D01*
X315840000Y-164990000D02*
X315840000Y-163170000D01*
X315840000Y-163170000D02*
X316760000Y-163170000D01*
X316760000Y-163170000D02*
X316760000Y-164990000D01*
X320640000Y-168010000D02*
X321560000Y-168010000D01*
X321560000Y-168010000D02*
X321560000Y-169830000D01*
X321560000Y-169830000D02*
X320640000Y-169830000D01*
X320640000Y-169830000D02*
X320640000Y-168010000D01*
X314560000Y-164990000D02*
X313640000Y-164990000D01*
X313640000Y-164990000D02*
X313640000Y-163170000D01*
X313640000Y-163170000D02*
X314560000Y-163170000D01*
X314560000Y-163170000D02*
X314560000Y-164990000D01*
X315660000Y-164990000D02*
X314740000Y-164990000D01*
X314740000Y-164990000D02*
X314740000Y-163170000D01*
X314740000Y-163170000D02*
X315660000Y-163170000D01*
X315660000Y-163170000D02*
X315660000Y-164990000D01*
X317860000Y-164990000D02*
X316940000Y-164990000D01*
X316940000Y-164990000D02*
X316940000Y-163170000D01*
X316940000Y-163170000D02*
X317860000Y-163170000D01*
X317860000Y-163170000D02*
X317860000Y-164990000D01*
X309690000Y-186260000D02*
X309690000Y-185340000D01*
X309690000Y-185340000D02*
X311510000Y-185340000D01*
X311510000Y-185340000D02*
X311510000Y-186260000D01*
X311510000Y-186260000D02*
X309690000Y-186260000D01*
X309540000Y-183370000D02*
X310460000Y-183370000D01*
X310460000Y-183370000D02*
X310460000Y-185190000D01*
X310460000Y-185190000D02*
X309540000Y-185190000D01*
X309540000Y-185190000D02*
X309540000Y-183370000D01*
X310560000Y-171930000D02*
X309640000Y-171930000D01*
X309640000Y-171930000D02*
X309640000Y-170110000D01*
X309640000Y-170110000D02*
X310560000Y-170110000D01*
X310560000Y-170110000D02*
X310560000Y-171930000D01*
X313930000Y-183340000D02*
X313930000Y-184260000D01*
X313930000Y-184260000D02*
X312110000Y-184260000D01*
X312110000Y-184260000D02*
X312110000Y-183340000D01*
X312110000Y-183340000D02*
X313930000Y-183340000D01*
X320460000Y-169830000D02*
X319540000Y-169830000D01*
X319540000Y-169830000D02*
X319540000Y-168010000D01*
X319540000Y-168010000D02*
X320460000Y-168010000D01*
X320460000Y-168010000D02*
X320460000Y-169830000D01*
X310640000Y-183370000D02*
X311560000Y-183370000D01*
X311560000Y-183370000D02*
X311560000Y-185190000D01*
X311560000Y-185190000D02*
X310640000Y-185190000D01*
X310640000Y-185190000D02*
X310640000Y-183370000D01*
X314010000Y-186340000D02*
X313090000Y-186340000D01*
X313090000Y-186340000D02*
X313090000Y-184520000D01*
X313090000Y-184520000D02*
X314010000Y-184520000D01*
X314010000Y-184520000D02*
X314010000Y-186340000D01*
X318340000Y-184550000D02*
X319260000Y-184550000D01*
X319260000Y-184550000D02*
X319260000Y-186370000D01*
X319260000Y-186370000D02*
X318340000Y-186370000D01*
X318340000Y-186370000D02*
X318340000Y-184550000D01*
X311857500Y-172457500D02*
X311857500Y-180697500D01*
X311857500Y-180697500D02*
X320097500Y-180697500D01*
X320097500Y-180697500D02*
X320097500Y-172457500D01*
X320097500Y-172457500D02*
X311857500Y-172457500D01*
X318370000Y-187190000D02*
X318370000Y-183790000D01*
X318370000Y-183790000D02*
X314170000Y-183790000D01*
X314170000Y-183790000D02*
X314170000Y-187190000D01*
X314170000Y-187190000D02*
X318370000Y-187190000D01*
D11*
X320500000Y-161700000D02*
X319750000Y-161700000D01*
X312250000Y-161700000D02*
X311500000Y-161700000D01*
X311500000Y-161700000D02*
X311500000Y-154200000D01*
X311500000Y-154200000D02*
X320500000Y-154200000D01*
X320500000Y-154200000D02*
X320500000Y-161700000D01*
X319750000Y-161700000D02*
X319750000Y-162700000D01*
X319750000Y-162700000D02*
X312250000Y-162700000D01*
X312250000Y-162700000D02*
X312250000Y-161700000D01*
D10*
X306580000Y-157730000D02*
X310130000Y-157730000D01*
X310130000Y-157730000D02*
X310130000Y-189230000D01*
X310130000Y-189230000D02*
X306580000Y-189230000D01*
X306580000Y-189230000D02*
X306580000Y-157730000D01*
X312220000Y-167580000D02*
X309980000Y-167580000D01*
X309980000Y-167580000D02*
X309980000Y-163020000D01*
X309980000Y-163020000D02*
X312220000Y-163020000D01*
X312220000Y-163020000D02*
X312220000Y-167580000D01*
M02*
