G04 #@! TF.GenerationSoftware,KiCad,Pcbnew,(5.1.7)-1*
G04 #@! TF.CreationDate,2021-03-17T14:13:32-05:00*
G04 #@! TF.ProjectId,keyboard,6b657962-6f61-4726-942e-6b696361645f,rev?*
G04 #@! TF.SameCoordinates,Original*
G04 #@! TF.FileFunction,Soldermask,Top*
G04 #@! TF.FilePolarity,Negative*
%FSLAX46Y46*%
G04 Gerber Fmt 4.6, Leading zero omitted, Abs format (unit mm)*
G04 Created by KiCad (PCBNEW (5.1.7)-1) date 2021-03-17 14:13:32*
%MOMM*%
%LPD*%
G01*
G04 APERTURE LIST*
%ADD10O,1.700000X1.700000*%
%ADD11R,1.700000X1.700000*%
%ADD12R,0.550000X1.500000*%
%ADD13R,1.500000X0.550000*%
%ADD14R,5.200000X5.200000*%
%ADD15R,1.400000X1.200000*%
%ADD16R,0.600000X1.450000*%
%ADD17R,0.300000X1.450000*%
%ADD18C,0.650000*%
%ADD19O,1.000000X2.100000*%
%ADD20O,1.000000X1.600000*%
G04 APERTURE END LIST*
D10*
X323620000Y-159530000D03*
X323620000Y-162070000D03*
X323620000Y-164610000D03*
X323620000Y-167150000D03*
X323620000Y-169690000D03*
X323620000Y-172230000D03*
X323620000Y-174770000D03*
X323620000Y-177310000D03*
X323620000Y-179850000D03*
X323620000Y-182390000D03*
X323620000Y-184930000D03*
D11*
X323620000Y-187470000D03*
D12*
X311977500Y-170877500D03*
X312777500Y-170877500D03*
X313577500Y-170877500D03*
X314377500Y-170877500D03*
X315177500Y-170877500D03*
X315977500Y-170877500D03*
X316777500Y-170877500D03*
X317577500Y-170877500D03*
X318377500Y-170877500D03*
X319177500Y-170877500D03*
X319977500Y-170877500D03*
D13*
X321677500Y-172577500D03*
X321677500Y-173377500D03*
X321677500Y-174177500D03*
X321677500Y-174977500D03*
X321677500Y-175777500D03*
X321677500Y-176577500D03*
X321677500Y-177377500D03*
X321677500Y-178177500D03*
X321677500Y-178977500D03*
X321677500Y-179777500D03*
X321677500Y-180577500D03*
D12*
X319977500Y-182277500D03*
X319177500Y-182277500D03*
X318377500Y-182277500D03*
X317577500Y-182277500D03*
X316777500Y-182277500D03*
X315977500Y-182277500D03*
X315177500Y-182277500D03*
X314377500Y-182277500D03*
X313577500Y-182277500D03*
X312777500Y-182277500D03*
X311977500Y-182277500D03*
D13*
X310277500Y-180577500D03*
X310277500Y-179777500D03*
X310277500Y-178977500D03*
X310277500Y-178177500D03*
X310277500Y-177377500D03*
X310277500Y-176577500D03*
X310277500Y-175777500D03*
X310277500Y-174977500D03*
X310277500Y-174177500D03*
X310277500Y-173377500D03*
X310277500Y-172577500D03*
G36*
G01*
X316470000Y-163880000D02*
X316130000Y-163880000D01*
G75*
G02*
X315990000Y-163740000I0J140000D01*
G01*
X315990000Y-163460000D01*
G75*
G02*
X316130000Y-163320000I140000J0D01*
G01*
X316470000Y-163320000D01*
G75*
G02*
X316610000Y-163460000I0J-140000D01*
G01*
X316610000Y-163740000D01*
G75*
G02*
X316470000Y-163880000I-140000J0D01*
G01*
G37*
G36*
G01*
X316470000Y-164840000D02*
X316130000Y-164840000D01*
G75*
G02*
X315990000Y-164700000I0J140000D01*
G01*
X315990000Y-164420000D01*
G75*
G02*
X316130000Y-164280000I140000J0D01*
G01*
X316470000Y-164280000D01*
G75*
G02*
X316610000Y-164420000I0J-140000D01*
G01*
X316610000Y-164700000D01*
G75*
G02*
X316470000Y-164840000I-140000J0D01*
G01*
G37*
G36*
G01*
X320930000Y-169120000D02*
X321270000Y-169120000D01*
G75*
G02*
X321410000Y-169260000I0J-140000D01*
G01*
X321410000Y-169540000D01*
G75*
G02*
X321270000Y-169680000I-140000J0D01*
G01*
X320930000Y-169680000D01*
G75*
G02*
X320790000Y-169540000I0J140000D01*
G01*
X320790000Y-169260000D01*
G75*
G02*
X320930000Y-169120000I140000J0D01*
G01*
G37*
G36*
G01*
X320930000Y-168160000D02*
X321270000Y-168160000D01*
G75*
G02*
X321410000Y-168300000I0J-140000D01*
G01*
X321410000Y-168580000D01*
G75*
G02*
X321270000Y-168720000I-140000J0D01*
G01*
X320930000Y-168720000D01*
G75*
G02*
X320790000Y-168580000I0J140000D01*
G01*
X320790000Y-168300000D01*
G75*
G02*
X320930000Y-168160000I140000J0D01*
G01*
G37*
G36*
G01*
X314270000Y-163880000D02*
X313930000Y-163880000D01*
G75*
G02*
X313790000Y-163740000I0J140000D01*
G01*
X313790000Y-163460000D01*
G75*
G02*
X313930000Y-163320000I140000J0D01*
G01*
X314270000Y-163320000D01*
G75*
G02*
X314410000Y-163460000I0J-140000D01*
G01*
X314410000Y-163740000D01*
G75*
G02*
X314270000Y-163880000I-140000J0D01*
G01*
G37*
G36*
G01*
X314270000Y-164840000D02*
X313930000Y-164840000D01*
G75*
G02*
X313790000Y-164700000I0J140000D01*
G01*
X313790000Y-164420000D01*
G75*
G02*
X313930000Y-164280000I140000J0D01*
G01*
X314270000Y-164280000D01*
G75*
G02*
X314410000Y-164420000I0J-140000D01*
G01*
X314410000Y-164700000D01*
G75*
G02*
X314270000Y-164840000I-140000J0D01*
G01*
G37*
G36*
G01*
X315370000Y-163880000D02*
X315030000Y-163880000D01*
G75*
G02*
X314890000Y-163740000I0J140000D01*
G01*
X314890000Y-163460000D01*
G75*
G02*
X315030000Y-163320000I140000J0D01*
G01*
X315370000Y-163320000D01*
G75*
G02*
X315510000Y-163460000I0J-140000D01*
G01*
X315510000Y-163740000D01*
G75*
G02*
X315370000Y-163880000I-140000J0D01*
G01*
G37*
G36*
G01*
X315370000Y-164840000D02*
X315030000Y-164840000D01*
G75*
G02*
X314890000Y-164700000I0J140000D01*
G01*
X314890000Y-164420000D01*
G75*
G02*
X315030000Y-164280000I140000J0D01*
G01*
X315370000Y-164280000D01*
G75*
G02*
X315510000Y-164420000I0J-140000D01*
G01*
X315510000Y-164700000D01*
G75*
G02*
X315370000Y-164840000I-140000J0D01*
G01*
G37*
G36*
G01*
X317570000Y-163880000D02*
X317230000Y-163880000D01*
G75*
G02*
X317090000Y-163740000I0J140000D01*
G01*
X317090000Y-163460000D01*
G75*
G02*
X317230000Y-163320000I140000J0D01*
G01*
X317570000Y-163320000D01*
G75*
G02*
X317710000Y-163460000I0J-140000D01*
G01*
X317710000Y-163740000D01*
G75*
G02*
X317570000Y-163880000I-140000J0D01*
G01*
G37*
G36*
G01*
X317570000Y-164840000D02*
X317230000Y-164840000D01*
G75*
G02*
X317090000Y-164700000I0J140000D01*
G01*
X317090000Y-164420000D01*
G75*
G02*
X317230000Y-164280000I140000J0D01*
G01*
X317570000Y-164280000D01*
G75*
G02*
X317710000Y-164420000I0J-140000D01*
G01*
X317710000Y-164700000D01*
G75*
G02*
X317570000Y-164840000I-140000J0D01*
G01*
G37*
G36*
G01*
X310800000Y-185970000D02*
X310800000Y-185630000D01*
G75*
G02*
X310940000Y-185490000I140000J0D01*
G01*
X311220000Y-185490000D01*
G75*
G02*
X311360000Y-185630000I0J-140000D01*
G01*
X311360000Y-185970000D01*
G75*
G02*
X311220000Y-186110000I-140000J0D01*
G01*
X310940000Y-186110000D01*
G75*
G02*
X310800000Y-185970000I0J140000D01*
G01*
G37*
G36*
G01*
X309840000Y-185970000D02*
X309840000Y-185630000D01*
G75*
G02*
X309980000Y-185490000I140000J0D01*
G01*
X310260000Y-185490000D01*
G75*
G02*
X310400000Y-185630000I0J-140000D01*
G01*
X310400000Y-185970000D01*
G75*
G02*
X310260000Y-186110000I-140000J0D01*
G01*
X309980000Y-186110000D01*
G75*
G02*
X309840000Y-185970000I0J140000D01*
G01*
G37*
G36*
G01*
X309830000Y-184480000D02*
X310170000Y-184480000D01*
G75*
G02*
X310310000Y-184620000I0J-140000D01*
G01*
X310310000Y-184900000D01*
G75*
G02*
X310170000Y-185040000I-140000J0D01*
G01*
X309830000Y-185040000D01*
G75*
G02*
X309690000Y-184900000I0J140000D01*
G01*
X309690000Y-184620000D01*
G75*
G02*
X309830000Y-184480000I140000J0D01*
G01*
G37*
G36*
G01*
X309830000Y-183520000D02*
X310170000Y-183520000D01*
G75*
G02*
X310310000Y-183660000I0J-140000D01*
G01*
X310310000Y-183940000D01*
G75*
G02*
X310170000Y-184080000I-140000J0D01*
G01*
X309830000Y-184080000D01*
G75*
G02*
X309690000Y-183940000I0J140000D01*
G01*
X309690000Y-183660000D01*
G75*
G02*
X309830000Y-183520000I140000J0D01*
G01*
G37*
G36*
G01*
X310270000Y-170820000D02*
X309930000Y-170820000D01*
G75*
G02*
X309790000Y-170680000I0J140000D01*
G01*
X309790000Y-170400000D01*
G75*
G02*
X309930000Y-170260000I140000J0D01*
G01*
X310270000Y-170260000D01*
G75*
G02*
X310410000Y-170400000I0J-140000D01*
G01*
X310410000Y-170680000D01*
G75*
G02*
X310270000Y-170820000I-140000J0D01*
G01*
G37*
G36*
G01*
X310270000Y-171780000D02*
X309930000Y-171780000D01*
G75*
G02*
X309790000Y-171640000I0J140000D01*
G01*
X309790000Y-171360000D01*
G75*
G02*
X309930000Y-171220000I140000J0D01*
G01*
X310270000Y-171220000D01*
G75*
G02*
X310410000Y-171360000I0J-140000D01*
G01*
X310410000Y-171640000D01*
G75*
G02*
X310270000Y-171780000I-140000J0D01*
G01*
G37*
G36*
G01*
X312820000Y-183630000D02*
X312820000Y-183970000D01*
G75*
G02*
X312680000Y-184110000I-140000J0D01*
G01*
X312400000Y-184110000D01*
G75*
G02*
X312260000Y-183970000I0J140000D01*
G01*
X312260000Y-183630000D01*
G75*
G02*
X312400000Y-183490000I140000J0D01*
G01*
X312680000Y-183490000D01*
G75*
G02*
X312820000Y-183630000I0J-140000D01*
G01*
G37*
G36*
G01*
X313780000Y-183630000D02*
X313780000Y-183970000D01*
G75*
G02*
X313640000Y-184110000I-140000J0D01*
G01*
X313360000Y-184110000D01*
G75*
G02*
X313220000Y-183970000I0J140000D01*
G01*
X313220000Y-183630000D01*
G75*
G02*
X313360000Y-183490000I140000J0D01*
G01*
X313640000Y-183490000D01*
G75*
G02*
X313780000Y-183630000I0J-140000D01*
G01*
G37*
G36*
G01*
X320170000Y-168720000D02*
X319830000Y-168720000D01*
G75*
G02*
X319690000Y-168580000I0J140000D01*
G01*
X319690000Y-168300000D01*
G75*
G02*
X319830000Y-168160000I140000J0D01*
G01*
X320170000Y-168160000D01*
G75*
G02*
X320310000Y-168300000I0J-140000D01*
G01*
X320310000Y-168580000D01*
G75*
G02*
X320170000Y-168720000I-140000J0D01*
G01*
G37*
G36*
G01*
X320170000Y-169680000D02*
X319830000Y-169680000D01*
G75*
G02*
X319690000Y-169540000I0J140000D01*
G01*
X319690000Y-169260000D01*
G75*
G02*
X319830000Y-169120000I140000J0D01*
G01*
X320170000Y-169120000D01*
G75*
G02*
X320310000Y-169260000I0J-140000D01*
G01*
X320310000Y-169540000D01*
G75*
G02*
X320170000Y-169680000I-140000J0D01*
G01*
G37*
G36*
G01*
X310930000Y-184480000D02*
X311270000Y-184480000D01*
G75*
G02*
X311410000Y-184620000I0J-140000D01*
G01*
X311410000Y-184900000D01*
G75*
G02*
X311270000Y-185040000I-140000J0D01*
G01*
X310930000Y-185040000D01*
G75*
G02*
X310790000Y-184900000I0J140000D01*
G01*
X310790000Y-184620000D01*
G75*
G02*
X310930000Y-184480000I140000J0D01*
G01*
G37*
G36*
G01*
X310930000Y-183520000D02*
X311270000Y-183520000D01*
G75*
G02*
X311410000Y-183660000I0J-140000D01*
G01*
X311410000Y-183940000D01*
G75*
G02*
X311270000Y-184080000I-140000J0D01*
G01*
X310930000Y-184080000D01*
G75*
G02*
X310790000Y-183940000I0J140000D01*
G01*
X310790000Y-183660000D01*
G75*
G02*
X310930000Y-183520000I140000J0D01*
G01*
G37*
G36*
G01*
X313720000Y-185230000D02*
X313380000Y-185230000D01*
G75*
G02*
X313240000Y-185090000I0J140000D01*
G01*
X313240000Y-184810000D01*
G75*
G02*
X313380000Y-184670000I140000J0D01*
G01*
X313720000Y-184670000D01*
G75*
G02*
X313860000Y-184810000I0J-140000D01*
G01*
X313860000Y-185090000D01*
G75*
G02*
X313720000Y-185230000I-140000J0D01*
G01*
G37*
G36*
G01*
X313720000Y-186190000D02*
X313380000Y-186190000D01*
G75*
G02*
X313240000Y-186050000I0J140000D01*
G01*
X313240000Y-185770000D01*
G75*
G02*
X313380000Y-185630000I140000J0D01*
G01*
X313720000Y-185630000D01*
G75*
G02*
X313860000Y-185770000I0J-140000D01*
G01*
X313860000Y-186050000D01*
G75*
G02*
X313720000Y-186190000I-140000J0D01*
G01*
G37*
G36*
G01*
X318630000Y-185660000D02*
X318970000Y-185660000D01*
G75*
G02*
X319110000Y-185800000I0J-140000D01*
G01*
X319110000Y-186080000D01*
G75*
G02*
X318970000Y-186220000I-140000J0D01*
G01*
X318630000Y-186220000D01*
G75*
G02*
X318490000Y-186080000I0J140000D01*
G01*
X318490000Y-185800000D01*
G75*
G02*
X318630000Y-185660000I140000J0D01*
G01*
G37*
G36*
G01*
X318630000Y-184700000D02*
X318970000Y-184700000D01*
G75*
G02*
X319110000Y-184840000I0J-140000D01*
G01*
X319110000Y-185120000D01*
G75*
G02*
X318970000Y-185260000I-140000J0D01*
G01*
X318630000Y-185260000D01*
G75*
G02*
X318490000Y-185120000I0J140000D01*
G01*
X318490000Y-184840000D01*
G75*
G02*
X318630000Y-184700000I140000J0D01*
G01*
G37*
D14*
X315977500Y-176577500D03*
G36*
G01*
X313352500Y-173715000D02*
X313352500Y-172765000D01*
G75*
G02*
X313415000Y-172702500I62500J0D01*
G01*
X313540000Y-172702500D01*
G75*
G02*
X313602500Y-172765000I0J-62500D01*
G01*
X313602500Y-173715000D01*
G75*
G02*
X313540000Y-173777500I-62500J0D01*
G01*
X313415000Y-173777500D01*
G75*
G02*
X313352500Y-173715000I0J62500D01*
G01*
G37*
G36*
G01*
X313852500Y-173715000D02*
X313852500Y-172765000D01*
G75*
G02*
X313915000Y-172702500I62500J0D01*
G01*
X314040000Y-172702500D01*
G75*
G02*
X314102500Y-172765000I0J-62500D01*
G01*
X314102500Y-173715000D01*
G75*
G02*
X314040000Y-173777500I-62500J0D01*
G01*
X313915000Y-173777500D01*
G75*
G02*
X313852500Y-173715000I0J62500D01*
G01*
G37*
G36*
G01*
X314352500Y-173715000D02*
X314352500Y-172765000D01*
G75*
G02*
X314415000Y-172702500I62500J0D01*
G01*
X314540000Y-172702500D01*
G75*
G02*
X314602500Y-172765000I0J-62500D01*
G01*
X314602500Y-173715000D01*
G75*
G02*
X314540000Y-173777500I-62500J0D01*
G01*
X314415000Y-173777500D01*
G75*
G02*
X314352500Y-173715000I0J62500D01*
G01*
G37*
G36*
G01*
X314852500Y-173715000D02*
X314852500Y-172765000D01*
G75*
G02*
X314915000Y-172702500I62500J0D01*
G01*
X315040000Y-172702500D01*
G75*
G02*
X315102500Y-172765000I0J-62500D01*
G01*
X315102500Y-173715000D01*
G75*
G02*
X315040000Y-173777500I-62500J0D01*
G01*
X314915000Y-173777500D01*
G75*
G02*
X314852500Y-173715000I0J62500D01*
G01*
G37*
G36*
G01*
X315352500Y-173715000D02*
X315352500Y-172765000D01*
G75*
G02*
X315415000Y-172702500I62500J0D01*
G01*
X315540000Y-172702500D01*
G75*
G02*
X315602500Y-172765000I0J-62500D01*
G01*
X315602500Y-173715000D01*
G75*
G02*
X315540000Y-173777500I-62500J0D01*
G01*
X315415000Y-173777500D01*
G75*
G02*
X315352500Y-173715000I0J62500D01*
G01*
G37*
G36*
G01*
X315852500Y-173715000D02*
X315852500Y-172765000D01*
G75*
G02*
X315915000Y-172702500I62500J0D01*
G01*
X316040000Y-172702500D01*
G75*
G02*
X316102500Y-172765000I0J-62500D01*
G01*
X316102500Y-173715000D01*
G75*
G02*
X316040000Y-173777500I-62500J0D01*
G01*
X315915000Y-173777500D01*
G75*
G02*
X315852500Y-173715000I0J62500D01*
G01*
G37*
G36*
G01*
X316352500Y-173715000D02*
X316352500Y-172765000D01*
G75*
G02*
X316415000Y-172702500I62500J0D01*
G01*
X316540000Y-172702500D01*
G75*
G02*
X316602500Y-172765000I0J-62500D01*
G01*
X316602500Y-173715000D01*
G75*
G02*
X316540000Y-173777500I-62500J0D01*
G01*
X316415000Y-173777500D01*
G75*
G02*
X316352500Y-173715000I0J62500D01*
G01*
G37*
G36*
G01*
X316852500Y-173715000D02*
X316852500Y-172765000D01*
G75*
G02*
X316915000Y-172702500I62500J0D01*
G01*
X317040000Y-172702500D01*
G75*
G02*
X317102500Y-172765000I0J-62500D01*
G01*
X317102500Y-173715000D01*
G75*
G02*
X317040000Y-173777500I-62500J0D01*
G01*
X316915000Y-173777500D01*
G75*
G02*
X316852500Y-173715000I0J62500D01*
G01*
G37*
G36*
G01*
X317352500Y-173715000D02*
X317352500Y-172765000D01*
G75*
G02*
X317415000Y-172702500I62500J0D01*
G01*
X317540000Y-172702500D01*
G75*
G02*
X317602500Y-172765000I0J-62500D01*
G01*
X317602500Y-173715000D01*
G75*
G02*
X317540000Y-173777500I-62500J0D01*
G01*
X317415000Y-173777500D01*
G75*
G02*
X317352500Y-173715000I0J62500D01*
G01*
G37*
G36*
G01*
X317852500Y-173715000D02*
X317852500Y-172765000D01*
G75*
G02*
X317915000Y-172702500I62500J0D01*
G01*
X318040000Y-172702500D01*
G75*
G02*
X318102500Y-172765000I0J-62500D01*
G01*
X318102500Y-173715000D01*
G75*
G02*
X318040000Y-173777500I-62500J0D01*
G01*
X317915000Y-173777500D01*
G75*
G02*
X317852500Y-173715000I0J62500D01*
G01*
G37*
G36*
G01*
X318352500Y-173715000D02*
X318352500Y-172765000D01*
G75*
G02*
X318415000Y-172702500I62500J0D01*
G01*
X318540000Y-172702500D01*
G75*
G02*
X318602500Y-172765000I0J-62500D01*
G01*
X318602500Y-173715000D01*
G75*
G02*
X318540000Y-173777500I-62500J0D01*
G01*
X318415000Y-173777500D01*
G75*
G02*
X318352500Y-173715000I0J62500D01*
G01*
G37*
G36*
G01*
X318777500Y-174140000D02*
X318777500Y-174015000D01*
G75*
G02*
X318840000Y-173952500I62500J0D01*
G01*
X319790000Y-173952500D01*
G75*
G02*
X319852500Y-174015000I0J-62500D01*
G01*
X319852500Y-174140000D01*
G75*
G02*
X319790000Y-174202500I-62500J0D01*
G01*
X318840000Y-174202500D01*
G75*
G02*
X318777500Y-174140000I0J62500D01*
G01*
G37*
G36*
G01*
X318777500Y-174640000D02*
X318777500Y-174515000D01*
G75*
G02*
X318840000Y-174452500I62500J0D01*
G01*
X319790000Y-174452500D01*
G75*
G02*
X319852500Y-174515000I0J-62500D01*
G01*
X319852500Y-174640000D01*
G75*
G02*
X319790000Y-174702500I-62500J0D01*
G01*
X318840000Y-174702500D01*
G75*
G02*
X318777500Y-174640000I0J62500D01*
G01*
G37*
G36*
G01*
X318777500Y-175140000D02*
X318777500Y-175015000D01*
G75*
G02*
X318840000Y-174952500I62500J0D01*
G01*
X319790000Y-174952500D01*
G75*
G02*
X319852500Y-175015000I0J-62500D01*
G01*
X319852500Y-175140000D01*
G75*
G02*
X319790000Y-175202500I-62500J0D01*
G01*
X318840000Y-175202500D01*
G75*
G02*
X318777500Y-175140000I0J62500D01*
G01*
G37*
G36*
G01*
X318777500Y-175640000D02*
X318777500Y-175515000D01*
G75*
G02*
X318840000Y-175452500I62500J0D01*
G01*
X319790000Y-175452500D01*
G75*
G02*
X319852500Y-175515000I0J-62500D01*
G01*
X319852500Y-175640000D01*
G75*
G02*
X319790000Y-175702500I-62500J0D01*
G01*
X318840000Y-175702500D01*
G75*
G02*
X318777500Y-175640000I0J62500D01*
G01*
G37*
G36*
G01*
X318777500Y-176140000D02*
X318777500Y-176015000D01*
G75*
G02*
X318840000Y-175952500I62500J0D01*
G01*
X319790000Y-175952500D01*
G75*
G02*
X319852500Y-176015000I0J-62500D01*
G01*
X319852500Y-176140000D01*
G75*
G02*
X319790000Y-176202500I-62500J0D01*
G01*
X318840000Y-176202500D01*
G75*
G02*
X318777500Y-176140000I0J62500D01*
G01*
G37*
G36*
G01*
X318777500Y-176640000D02*
X318777500Y-176515000D01*
G75*
G02*
X318840000Y-176452500I62500J0D01*
G01*
X319790000Y-176452500D01*
G75*
G02*
X319852500Y-176515000I0J-62500D01*
G01*
X319852500Y-176640000D01*
G75*
G02*
X319790000Y-176702500I-62500J0D01*
G01*
X318840000Y-176702500D01*
G75*
G02*
X318777500Y-176640000I0J62500D01*
G01*
G37*
G36*
G01*
X318777500Y-177140000D02*
X318777500Y-177015000D01*
G75*
G02*
X318840000Y-176952500I62500J0D01*
G01*
X319790000Y-176952500D01*
G75*
G02*
X319852500Y-177015000I0J-62500D01*
G01*
X319852500Y-177140000D01*
G75*
G02*
X319790000Y-177202500I-62500J0D01*
G01*
X318840000Y-177202500D01*
G75*
G02*
X318777500Y-177140000I0J62500D01*
G01*
G37*
G36*
G01*
X318777500Y-177640000D02*
X318777500Y-177515000D01*
G75*
G02*
X318840000Y-177452500I62500J0D01*
G01*
X319790000Y-177452500D01*
G75*
G02*
X319852500Y-177515000I0J-62500D01*
G01*
X319852500Y-177640000D01*
G75*
G02*
X319790000Y-177702500I-62500J0D01*
G01*
X318840000Y-177702500D01*
G75*
G02*
X318777500Y-177640000I0J62500D01*
G01*
G37*
G36*
G01*
X318777500Y-178140000D02*
X318777500Y-178015000D01*
G75*
G02*
X318840000Y-177952500I62500J0D01*
G01*
X319790000Y-177952500D01*
G75*
G02*
X319852500Y-178015000I0J-62500D01*
G01*
X319852500Y-178140000D01*
G75*
G02*
X319790000Y-178202500I-62500J0D01*
G01*
X318840000Y-178202500D01*
G75*
G02*
X318777500Y-178140000I0J62500D01*
G01*
G37*
G36*
G01*
X318777500Y-178640000D02*
X318777500Y-178515000D01*
G75*
G02*
X318840000Y-178452500I62500J0D01*
G01*
X319790000Y-178452500D01*
G75*
G02*
X319852500Y-178515000I0J-62500D01*
G01*
X319852500Y-178640000D01*
G75*
G02*
X319790000Y-178702500I-62500J0D01*
G01*
X318840000Y-178702500D01*
G75*
G02*
X318777500Y-178640000I0J62500D01*
G01*
G37*
G36*
G01*
X318777500Y-179140000D02*
X318777500Y-179015000D01*
G75*
G02*
X318840000Y-178952500I62500J0D01*
G01*
X319790000Y-178952500D01*
G75*
G02*
X319852500Y-179015000I0J-62500D01*
G01*
X319852500Y-179140000D01*
G75*
G02*
X319790000Y-179202500I-62500J0D01*
G01*
X318840000Y-179202500D01*
G75*
G02*
X318777500Y-179140000I0J62500D01*
G01*
G37*
G36*
G01*
X318352500Y-180390000D02*
X318352500Y-179440000D01*
G75*
G02*
X318415000Y-179377500I62500J0D01*
G01*
X318540000Y-179377500D01*
G75*
G02*
X318602500Y-179440000I0J-62500D01*
G01*
X318602500Y-180390000D01*
G75*
G02*
X318540000Y-180452500I-62500J0D01*
G01*
X318415000Y-180452500D01*
G75*
G02*
X318352500Y-180390000I0J62500D01*
G01*
G37*
G36*
G01*
X317852500Y-180390000D02*
X317852500Y-179440000D01*
G75*
G02*
X317915000Y-179377500I62500J0D01*
G01*
X318040000Y-179377500D01*
G75*
G02*
X318102500Y-179440000I0J-62500D01*
G01*
X318102500Y-180390000D01*
G75*
G02*
X318040000Y-180452500I-62500J0D01*
G01*
X317915000Y-180452500D01*
G75*
G02*
X317852500Y-180390000I0J62500D01*
G01*
G37*
G36*
G01*
X317352500Y-180390000D02*
X317352500Y-179440000D01*
G75*
G02*
X317415000Y-179377500I62500J0D01*
G01*
X317540000Y-179377500D01*
G75*
G02*
X317602500Y-179440000I0J-62500D01*
G01*
X317602500Y-180390000D01*
G75*
G02*
X317540000Y-180452500I-62500J0D01*
G01*
X317415000Y-180452500D01*
G75*
G02*
X317352500Y-180390000I0J62500D01*
G01*
G37*
G36*
G01*
X316852500Y-180390000D02*
X316852500Y-179440000D01*
G75*
G02*
X316915000Y-179377500I62500J0D01*
G01*
X317040000Y-179377500D01*
G75*
G02*
X317102500Y-179440000I0J-62500D01*
G01*
X317102500Y-180390000D01*
G75*
G02*
X317040000Y-180452500I-62500J0D01*
G01*
X316915000Y-180452500D01*
G75*
G02*
X316852500Y-180390000I0J62500D01*
G01*
G37*
G36*
G01*
X316352500Y-180390000D02*
X316352500Y-179440000D01*
G75*
G02*
X316415000Y-179377500I62500J0D01*
G01*
X316540000Y-179377500D01*
G75*
G02*
X316602500Y-179440000I0J-62500D01*
G01*
X316602500Y-180390000D01*
G75*
G02*
X316540000Y-180452500I-62500J0D01*
G01*
X316415000Y-180452500D01*
G75*
G02*
X316352500Y-180390000I0J62500D01*
G01*
G37*
G36*
G01*
X315852500Y-180390000D02*
X315852500Y-179440000D01*
G75*
G02*
X315915000Y-179377500I62500J0D01*
G01*
X316040000Y-179377500D01*
G75*
G02*
X316102500Y-179440000I0J-62500D01*
G01*
X316102500Y-180390000D01*
G75*
G02*
X316040000Y-180452500I-62500J0D01*
G01*
X315915000Y-180452500D01*
G75*
G02*
X315852500Y-180390000I0J62500D01*
G01*
G37*
G36*
G01*
X315352500Y-180390000D02*
X315352500Y-179440000D01*
G75*
G02*
X315415000Y-179377500I62500J0D01*
G01*
X315540000Y-179377500D01*
G75*
G02*
X315602500Y-179440000I0J-62500D01*
G01*
X315602500Y-180390000D01*
G75*
G02*
X315540000Y-180452500I-62500J0D01*
G01*
X315415000Y-180452500D01*
G75*
G02*
X315352500Y-180390000I0J62500D01*
G01*
G37*
G36*
G01*
X314852500Y-180390000D02*
X314852500Y-179440000D01*
G75*
G02*
X314915000Y-179377500I62500J0D01*
G01*
X315040000Y-179377500D01*
G75*
G02*
X315102500Y-179440000I0J-62500D01*
G01*
X315102500Y-180390000D01*
G75*
G02*
X315040000Y-180452500I-62500J0D01*
G01*
X314915000Y-180452500D01*
G75*
G02*
X314852500Y-180390000I0J62500D01*
G01*
G37*
G36*
G01*
X314352500Y-180390000D02*
X314352500Y-179440000D01*
G75*
G02*
X314415000Y-179377500I62500J0D01*
G01*
X314540000Y-179377500D01*
G75*
G02*
X314602500Y-179440000I0J-62500D01*
G01*
X314602500Y-180390000D01*
G75*
G02*
X314540000Y-180452500I-62500J0D01*
G01*
X314415000Y-180452500D01*
G75*
G02*
X314352500Y-180390000I0J62500D01*
G01*
G37*
G36*
G01*
X313852500Y-180390000D02*
X313852500Y-179440000D01*
G75*
G02*
X313915000Y-179377500I62500J0D01*
G01*
X314040000Y-179377500D01*
G75*
G02*
X314102500Y-179440000I0J-62500D01*
G01*
X314102500Y-180390000D01*
G75*
G02*
X314040000Y-180452500I-62500J0D01*
G01*
X313915000Y-180452500D01*
G75*
G02*
X313852500Y-180390000I0J62500D01*
G01*
G37*
G36*
G01*
X313352500Y-180390000D02*
X313352500Y-179440000D01*
G75*
G02*
X313415000Y-179377500I62500J0D01*
G01*
X313540000Y-179377500D01*
G75*
G02*
X313602500Y-179440000I0J-62500D01*
G01*
X313602500Y-180390000D01*
G75*
G02*
X313540000Y-180452500I-62500J0D01*
G01*
X313415000Y-180452500D01*
G75*
G02*
X313352500Y-180390000I0J62500D01*
G01*
G37*
G36*
G01*
X312102500Y-179140000D02*
X312102500Y-179015000D01*
G75*
G02*
X312165000Y-178952500I62500J0D01*
G01*
X313115000Y-178952500D01*
G75*
G02*
X313177500Y-179015000I0J-62500D01*
G01*
X313177500Y-179140000D01*
G75*
G02*
X313115000Y-179202500I-62500J0D01*
G01*
X312165000Y-179202500D01*
G75*
G02*
X312102500Y-179140000I0J62500D01*
G01*
G37*
G36*
G01*
X312102500Y-178640000D02*
X312102500Y-178515000D01*
G75*
G02*
X312165000Y-178452500I62500J0D01*
G01*
X313115000Y-178452500D01*
G75*
G02*
X313177500Y-178515000I0J-62500D01*
G01*
X313177500Y-178640000D01*
G75*
G02*
X313115000Y-178702500I-62500J0D01*
G01*
X312165000Y-178702500D01*
G75*
G02*
X312102500Y-178640000I0J62500D01*
G01*
G37*
G36*
G01*
X312102500Y-178140000D02*
X312102500Y-178015000D01*
G75*
G02*
X312165000Y-177952500I62500J0D01*
G01*
X313115000Y-177952500D01*
G75*
G02*
X313177500Y-178015000I0J-62500D01*
G01*
X313177500Y-178140000D01*
G75*
G02*
X313115000Y-178202500I-62500J0D01*
G01*
X312165000Y-178202500D01*
G75*
G02*
X312102500Y-178140000I0J62500D01*
G01*
G37*
G36*
G01*
X312102500Y-177640000D02*
X312102500Y-177515000D01*
G75*
G02*
X312165000Y-177452500I62500J0D01*
G01*
X313115000Y-177452500D01*
G75*
G02*
X313177500Y-177515000I0J-62500D01*
G01*
X313177500Y-177640000D01*
G75*
G02*
X313115000Y-177702500I-62500J0D01*
G01*
X312165000Y-177702500D01*
G75*
G02*
X312102500Y-177640000I0J62500D01*
G01*
G37*
G36*
G01*
X312102500Y-177140000D02*
X312102500Y-177015000D01*
G75*
G02*
X312165000Y-176952500I62500J0D01*
G01*
X313115000Y-176952500D01*
G75*
G02*
X313177500Y-177015000I0J-62500D01*
G01*
X313177500Y-177140000D01*
G75*
G02*
X313115000Y-177202500I-62500J0D01*
G01*
X312165000Y-177202500D01*
G75*
G02*
X312102500Y-177140000I0J62500D01*
G01*
G37*
G36*
G01*
X312102500Y-176640000D02*
X312102500Y-176515000D01*
G75*
G02*
X312165000Y-176452500I62500J0D01*
G01*
X313115000Y-176452500D01*
G75*
G02*
X313177500Y-176515000I0J-62500D01*
G01*
X313177500Y-176640000D01*
G75*
G02*
X313115000Y-176702500I-62500J0D01*
G01*
X312165000Y-176702500D01*
G75*
G02*
X312102500Y-176640000I0J62500D01*
G01*
G37*
G36*
G01*
X312102500Y-176140000D02*
X312102500Y-176015000D01*
G75*
G02*
X312165000Y-175952500I62500J0D01*
G01*
X313115000Y-175952500D01*
G75*
G02*
X313177500Y-176015000I0J-62500D01*
G01*
X313177500Y-176140000D01*
G75*
G02*
X313115000Y-176202500I-62500J0D01*
G01*
X312165000Y-176202500D01*
G75*
G02*
X312102500Y-176140000I0J62500D01*
G01*
G37*
G36*
G01*
X312102500Y-175640000D02*
X312102500Y-175515000D01*
G75*
G02*
X312165000Y-175452500I62500J0D01*
G01*
X313115000Y-175452500D01*
G75*
G02*
X313177500Y-175515000I0J-62500D01*
G01*
X313177500Y-175640000D01*
G75*
G02*
X313115000Y-175702500I-62500J0D01*
G01*
X312165000Y-175702500D01*
G75*
G02*
X312102500Y-175640000I0J62500D01*
G01*
G37*
G36*
G01*
X312102500Y-175140000D02*
X312102500Y-175015000D01*
G75*
G02*
X312165000Y-174952500I62500J0D01*
G01*
X313115000Y-174952500D01*
G75*
G02*
X313177500Y-175015000I0J-62500D01*
G01*
X313177500Y-175140000D01*
G75*
G02*
X313115000Y-175202500I-62500J0D01*
G01*
X312165000Y-175202500D01*
G75*
G02*
X312102500Y-175140000I0J62500D01*
G01*
G37*
G36*
G01*
X312102500Y-174640000D02*
X312102500Y-174515000D01*
G75*
G02*
X312165000Y-174452500I62500J0D01*
G01*
X313115000Y-174452500D01*
G75*
G02*
X313177500Y-174515000I0J-62500D01*
G01*
X313177500Y-174640000D01*
G75*
G02*
X313115000Y-174702500I-62500J0D01*
G01*
X312165000Y-174702500D01*
G75*
G02*
X312102500Y-174640000I0J62500D01*
G01*
G37*
G36*
G01*
X312102500Y-174140000D02*
X312102500Y-174015000D01*
G75*
G02*
X312165000Y-173952500I62500J0D01*
G01*
X313115000Y-173952500D01*
G75*
G02*
X313177500Y-174015000I0J-62500D01*
G01*
X313177500Y-174140000D01*
G75*
G02*
X313115000Y-174202500I-62500J0D01*
G01*
X312165000Y-174202500D01*
G75*
G02*
X312102500Y-174140000I0J62500D01*
G01*
G37*
D15*
X317370000Y-186340000D03*
X315170000Y-186340000D03*
X315170000Y-184640000D03*
X317370000Y-184640000D03*
D16*
X312775000Y-161895000D03*
X319225000Y-161895000D03*
X313550000Y-161895000D03*
X318450000Y-161895000D03*
D17*
X317750000Y-161895000D03*
X314250000Y-161895000D03*
X317250000Y-161895000D03*
X314750000Y-161895000D03*
X316750000Y-161895000D03*
X315250000Y-161895000D03*
X315750000Y-161895000D03*
X316250000Y-161895000D03*
D18*
X313110000Y-160450000D03*
X318890000Y-160450000D03*
D19*
X320320000Y-160980000D03*
X311680000Y-160980000D03*
D20*
X320320000Y-156800000D03*
X311680000Y-156800000D03*
D10*
X308380000Y-187470000D03*
X308380000Y-184930000D03*
X308380000Y-182390000D03*
X308380000Y-179850000D03*
X308380000Y-177310000D03*
X308380000Y-174770000D03*
X308380000Y-172230000D03*
X308380000Y-169690000D03*
X308380000Y-167150000D03*
X308380000Y-164610000D03*
X308380000Y-162070000D03*
D11*
X308380000Y-159530000D03*
G36*
G01*
X311725000Y-164525000D02*
X310475000Y-164525000D01*
G75*
G02*
X310225000Y-164275000I0J250000D01*
G01*
X310225000Y-163525000D01*
G75*
G02*
X310475000Y-163275000I250000J0D01*
G01*
X311725000Y-163275000D01*
G75*
G02*
X311975000Y-163525000I0J-250000D01*
G01*
X311975000Y-164275000D01*
G75*
G02*
X311725000Y-164525000I-250000J0D01*
G01*
G37*
G36*
G01*
X311725000Y-167325000D02*
X310475000Y-167325000D01*
G75*
G02*
X310225000Y-167075000I0J250000D01*
G01*
X310225000Y-166325000D01*
G75*
G02*
X310475000Y-166075000I250000J0D01*
G01*
X311725000Y-166075000D01*
G75*
G02*
X311975000Y-166325000I0J-250000D01*
G01*
X311975000Y-167075000D01*
G75*
G02*
X311725000Y-167325000I-250000J0D01*
G01*
G37*
M02*
