G04 #@! TF.GenerationSoftware,KiCad,Pcbnew,(5.1.7)-1*
G04 #@! TF.CreationDate,2021-03-17T14:13:32-05:00*
G04 #@! TF.ProjectId,keyboard,6b657962-6f61-4726-942e-6b696361645f,rev?*
G04 #@! TF.SameCoordinates,Original*
G04 #@! TF.FileFunction,Other,Fab,Top*
%FSLAX46Y46*%
G04 Gerber Fmt 4.6, Leading zero omitted, Abs format (unit mm)*
G04 Created by KiCad (PCBNEW (5.1.7)-1) date 2021-03-17 14:13:32*
%MOMM*%
%LPD*%
G01*
G04 APERTURE LIST*
%ADD10C,0.100000*%
%ADD11C,0.150000*%
%ADD12C,0.040000*%
%ADD13C,0.105000*%
%ADD14C,0.120000*%
G04 APERTURE END LIST*
D10*
X324890000Y-188740000D02*
X322985000Y-188740000D01*
X322985000Y-188740000D02*
X322350000Y-188105000D01*
X322350000Y-188105000D02*
X322350000Y-158260000D01*
X322350000Y-158260000D02*
X324890000Y-158260000D01*
X324890000Y-158260000D02*
X324890000Y-188740000D01*
D11*
X311977500Y-171577500D02*
X320977500Y-171577500D01*
X320977500Y-171577500D02*
X320977500Y-181577500D01*
X320977500Y-181577500D02*
X310977500Y-181577500D01*
X310977500Y-181577500D02*
X310977500Y-172577500D01*
X310977500Y-172577500D02*
X311977500Y-171577500D01*
D10*
X316550000Y-164580000D02*
X316050000Y-164580000D01*
X316050000Y-164580000D02*
X316050000Y-163580000D01*
X316050000Y-163580000D02*
X316550000Y-163580000D01*
X316550000Y-163580000D02*
X316550000Y-164580000D01*
X320850000Y-168420000D02*
X321350000Y-168420000D01*
X321350000Y-168420000D02*
X321350000Y-169420000D01*
X321350000Y-169420000D02*
X320850000Y-169420000D01*
X320850000Y-169420000D02*
X320850000Y-168420000D01*
X314350000Y-164580000D02*
X313850000Y-164580000D01*
X313850000Y-164580000D02*
X313850000Y-163580000D01*
X313850000Y-163580000D02*
X314350000Y-163580000D01*
X314350000Y-163580000D02*
X314350000Y-164580000D01*
X315450000Y-164580000D02*
X314950000Y-164580000D01*
X314950000Y-164580000D02*
X314950000Y-163580000D01*
X314950000Y-163580000D02*
X315450000Y-163580000D01*
X315450000Y-163580000D02*
X315450000Y-164580000D01*
X317650000Y-164580000D02*
X317150000Y-164580000D01*
X317150000Y-164580000D02*
X317150000Y-163580000D01*
X317150000Y-163580000D02*
X317650000Y-163580000D01*
X317650000Y-163580000D02*
X317650000Y-164580000D01*
X310100000Y-186050000D02*
X310100000Y-185550000D01*
X310100000Y-185550000D02*
X311100000Y-185550000D01*
X311100000Y-185550000D02*
X311100000Y-186050000D01*
X311100000Y-186050000D02*
X310100000Y-186050000D01*
X309750000Y-183780000D02*
X310250000Y-183780000D01*
X310250000Y-183780000D02*
X310250000Y-184780000D01*
X310250000Y-184780000D02*
X309750000Y-184780000D01*
X309750000Y-184780000D02*
X309750000Y-183780000D01*
X310350000Y-171520000D02*
X309850000Y-171520000D01*
X309850000Y-171520000D02*
X309850000Y-170520000D01*
X309850000Y-170520000D02*
X310350000Y-170520000D01*
X310350000Y-170520000D02*
X310350000Y-171520000D01*
X313520000Y-183550000D02*
X313520000Y-184050000D01*
X313520000Y-184050000D02*
X312520000Y-184050000D01*
X312520000Y-184050000D02*
X312520000Y-183550000D01*
X312520000Y-183550000D02*
X313520000Y-183550000D01*
X320250000Y-169420000D02*
X319750000Y-169420000D01*
X319750000Y-169420000D02*
X319750000Y-168420000D01*
X319750000Y-168420000D02*
X320250000Y-168420000D01*
X320250000Y-168420000D02*
X320250000Y-169420000D01*
X310850000Y-183780000D02*
X311350000Y-183780000D01*
X311350000Y-183780000D02*
X311350000Y-184780000D01*
X311350000Y-184780000D02*
X310850000Y-184780000D01*
X310850000Y-184780000D02*
X310850000Y-183780000D01*
X313800000Y-185930000D02*
X313300000Y-185930000D01*
X313300000Y-185930000D02*
X313300000Y-184930000D01*
X313300000Y-184930000D02*
X313800000Y-184930000D01*
X313800000Y-184930000D02*
X313800000Y-185930000D01*
X318550000Y-184960000D02*
X319050000Y-184960000D01*
X319050000Y-184960000D02*
X319050000Y-185960000D01*
X319050000Y-185960000D02*
X318550000Y-185960000D01*
X318550000Y-185960000D02*
X318550000Y-184960000D01*
X313477500Y-173077500D02*
X319477500Y-173077500D01*
X319477500Y-173077500D02*
X319477500Y-180077500D01*
X319477500Y-180077500D02*
X312477500Y-180077500D01*
X312477500Y-180077500D02*
X312477500Y-174077500D01*
X312477500Y-174077500D02*
X313477500Y-173077500D01*
X317870000Y-186740000D02*
X317870000Y-184240000D01*
X317870000Y-184240000D02*
X314670000Y-184240000D01*
X314670000Y-184240000D02*
X314670000Y-186740000D01*
X314670000Y-186740000D02*
X317870000Y-186740000D01*
X317870000Y-185240000D02*
X316870000Y-184240000D01*
X307110000Y-158260000D02*
X309015000Y-158260000D01*
X309015000Y-158260000D02*
X309650000Y-158895000D01*
X309650000Y-158895000D02*
X309650000Y-188740000D01*
X309650000Y-188740000D02*
X307110000Y-188740000D01*
X307110000Y-188740000D02*
X307110000Y-158260000D01*
X311900000Y-166900000D02*
X310300000Y-166900000D01*
X310300000Y-166900000D02*
X310300000Y-163700000D01*
X310300000Y-163700000D02*
X311900000Y-163700000D01*
X311900000Y-163700000D02*
X311900000Y-166900000D01*
D11*
X319881904Y-157117142D02*
X319834285Y-157164761D01*
X319691428Y-157212380D01*
X319596190Y-157212380D01*
X319453333Y-157164761D01*
X319358095Y-157069523D01*
X319310476Y-156974285D01*
X319262857Y-156783809D01*
X319262857Y-156640952D01*
X319310476Y-156450476D01*
X319358095Y-156355238D01*
X319453333Y-156260000D01*
X319596190Y-156212380D01*
X319691428Y-156212380D01*
X319834285Y-156260000D01*
X319881904Y-156307619D01*
X320453333Y-157212380D02*
X320358095Y-157164761D01*
X320310476Y-157117142D01*
X320262857Y-157021904D01*
X320262857Y-156736190D01*
X320310476Y-156640952D01*
X320358095Y-156593333D01*
X320453333Y-156545714D01*
X320596190Y-156545714D01*
X320691428Y-156593333D01*
X320739047Y-156640952D01*
X320786666Y-156736190D01*
X320786666Y-157021904D01*
X320739047Y-157117142D01*
X320691428Y-157164761D01*
X320596190Y-157212380D01*
X320453333Y-157212380D01*
X321215238Y-156545714D02*
X321215238Y-157212380D01*
X321215238Y-156640952D02*
X321262857Y-156593333D01*
X321358095Y-156545714D01*
X321500952Y-156545714D01*
X321596190Y-156593333D01*
X321643809Y-156688571D01*
X321643809Y-157212380D01*
X322120000Y-156545714D02*
X322120000Y-157212380D01*
X322120000Y-156640952D02*
X322167619Y-156593333D01*
X322262857Y-156545714D01*
X322405714Y-156545714D01*
X322500952Y-156593333D01*
X322548571Y-156688571D01*
X322548571Y-157212380D01*
X322786666Y-157307619D02*
X323548571Y-157307619D01*
X323977142Y-156212380D02*
X324072380Y-156212380D01*
X324167619Y-156260000D01*
X324215238Y-156307619D01*
X324262857Y-156402857D01*
X324310476Y-156593333D01*
X324310476Y-156831428D01*
X324262857Y-157021904D01*
X324215238Y-157117142D01*
X324167619Y-157164761D01*
X324072380Y-157212380D01*
X323977142Y-157212380D01*
X323881904Y-157164761D01*
X323834285Y-157117142D01*
X323786666Y-157021904D01*
X323739047Y-156831428D01*
X323739047Y-156593333D01*
X323786666Y-156402857D01*
X323834285Y-156307619D01*
X323881904Y-156260000D01*
X323977142Y-156212380D01*
X325262857Y-157212380D02*
X324691428Y-157212380D01*
X324977142Y-157212380D02*
X324977142Y-156212380D01*
X324881904Y-156355238D01*
X324786666Y-156450476D01*
X324691428Y-156498095D01*
X325596190Y-157212380D02*
X326120000Y-156545714D01*
X325596190Y-156545714D02*
X326120000Y-157212380D01*
X327024761Y-157212380D02*
X326453333Y-157212380D01*
X326739047Y-157212380D02*
X326739047Y-156212380D01*
X326643809Y-156355238D01*
X326548571Y-156450476D01*
X326453333Y-156498095D01*
X327405714Y-156307619D02*
X327453333Y-156260000D01*
X327548571Y-156212380D01*
X327786666Y-156212380D01*
X327881904Y-156260000D01*
X327929523Y-156307619D01*
X327977142Y-156402857D01*
X327977142Y-156498095D01*
X327929523Y-156640952D01*
X327358095Y-157212380D01*
X327977142Y-157212380D01*
X323072380Y-173833333D02*
X323786666Y-173833333D01*
X323929523Y-173880952D01*
X324024761Y-173976190D01*
X324072380Y-174119047D01*
X324072380Y-174214285D01*
X323167619Y-173404761D02*
X323120000Y-173357142D01*
X323072380Y-173261904D01*
X323072380Y-173023809D01*
X323120000Y-172928571D01*
X323167619Y-172880952D01*
X323262857Y-172833333D01*
X323358095Y-172833333D01*
X323500952Y-172880952D01*
X324072380Y-173452380D01*
X324072380Y-172833333D01*
X309834642Y-184194166D02*
X310310833Y-184194166D01*
X309739404Y-184479880D02*
X310072738Y-183479880D01*
X310406071Y-184479880D01*
X310596547Y-183479880D02*
X311167976Y-183479880D01*
X310882261Y-184479880D02*
X310882261Y-183479880D01*
X311501309Y-184479880D02*
X311501309Y-183813214D01*
X311501309Y-183908452D02*
X311548928Y-183860833D01*
X311644166Y-183813214D01*
X311787023Y-183813214D01*
X311882261Y-183860833D01*
X311929880Y-183956071D01*
X311929880Y-184479880D01*
X311929880Y-183956071D02*
X311977500Y-183860833D01*
X312072738Y-183813214D01*
X312215595Y-183813214D01*
X312310833Y-183860833D01*
X312358452Y-183956071D01*
X312358452Y-184479880D01*
X313215595Y-184432261D02*
X313120357Y-184479880D01*
X312929880Y-184479880D01*
X312834642Y-184432261D01*
X312787023Y-184337023D01*
X312787023Y-183956071D01*
X312834642Y-183860833D01*
X312929880Y-183813214D01*
X313120357Y-183813214D01*
X313215595Y-183860833D01*
X313263214Y-183956071D01*
X313263214Y-184051309D01*
X312787023Y-184146547D01*
X314120357Y-183813214D02*
X314120357Y-184622738D01*
X314072738Y-184717976D01*
X314025119Y-184765595D01*
X313929880Y-184813214D01*
X313787023Y-184813214D01*
X313691785Y-184765595D01*
X314120357Y-184432261D02*
X314025119Y-184479880D01*
X313834642Y-184479880D01*
X313739404Y-184432261D01*
X313691785Y-184384642D01*
X313644166Y-184289404D01*
X313644166Y-184003690D01*
X313691785Y-183908452D01*
X313739404Y-183860833D01*
X313834642Y-183813214D01*
X314025119Y-183813214D01*
X314120357Y-183860833D01*
X315025119Y-184479880D02*
X315025119Y-183956071D01*
X314977500Y-183860833D01*
X314882261Y-183813214D01*
X314691785Y-183813214D01*
X314596547Y-183860833D01*
X315025119Y-184432261D02*
X314929880Y-184479880D01*
X314691785Y-184479880D01*
X314596547Y-184432261D01*
X314548928Y-184337023D01*
X314548928Y-184241785D01*
X314596547Y-184146547D01*
X314691785Y-184098928D01*
X314929880Y-184098928D01*
X315025119Y-184051309D01*
X315406071Y-183479880D02*
X316025119Y-183479880D01*
X315691785Y-183860833D01*
X315834642Y-183860833D01*
X315929880Y-183908452D01*
X315977500Y-183956071D01*
X316025119Y-184051309D01*
X316025119Y-184289404D01*
X315977500Y-184384642D01*
X315929880Y-184432261D01*
X315834642Y-184479880D01*
X315548928Y-184479880D01*
X315453690Y-184432261D01*
X315406071Y-184384642D01*
X316406071Y-183575119D02*
X316453690Y-183527500D01*
X316548928Y-183479880D01*
X316787023Y-183479880D01*
X316882261Y-183527500D01*
X316929880Y-183575119D01*
X316977500Y-183670357D01*
X316977500Y-183765595D01*
X316929880Y-183908452D01*
X316358452Y-184479880D01*
X316977500Y-184479880D01*
X317406071Y-183479880D02*
X317406071Y-184289404D01*
X317453690Y-184384642D01*
X317501309Y-184432261D01*
X317596547Y-184479880D01*
X317787023Y-184479880D01*
X317882261Y-184432261D01*
X317929880Y-184384642D01*
X317977500Y-184289404D01*
X317977500Y-183479880D01*
X318882261Y-183813214D02*
X318882261Y-184479880D01*
X318644166Y-183432261D02*
X318406071Y-184146547D01*
X319025119Y-184146547D01*
X319406071Y-184098928D02*
X320167976Y-184098928D01*
X320596547Y-184194166D02*
X321072738Y-184194166D01*
X320501309Y-184479880D02*
X320834642Y-183479880D01*
X321167976Y-184479880D01*
X321501309Y-183479880D02*
X321501309Y-184289404D01*
X321548928Y-184384642D01*
X321596547Y-184432261D01*
X321691785Y-184479880D01*
X321882261Y-184479880D01*
X321977500Y-184432261D01*
X322025119Y-184384642D01*
X322072738Y-184289404D01*
X322072738Y-183479880D01*
X315215595Y-176029880D02*
X315215595Y-176839404D01*
X315263214Y-176934642D01*
X315310833Y-176982261D01*
X315406071Y-177029880D01*
X315596547Y-177029880D01*
X315691785Y-176982261D01*
X315739404Y-176934642D01*
X315787023Y-176839404D01*
X315787023Y-176029880D01*
X316215595Y-176125119D02*
X316263214Y-176077500D01*
X316358452Y-176029880D01*
X316596547Y-176029880D01*
X316691785Y-176077500D01*
X316739404Y-176125119D01*
X316787023Y-176220357D01*
X316787023Y-176315595D01*
X316739404Y-176458452D01*
X316167976Y-177029880D01*
X316787023Y-177029880D01*
X317007619Y-165246666D02*
X316960000Y-165199047D01*
X316912380Y-165103809D01*
X316912380Y-164865714D01*
X316960000Y-164770476D01*
X317007619Y-164722857D01*
X317102857Y-164675238D01*
X317198095Y-164675238D01*
X317340952Y-164722857D01*
X317912380Y-165294285D01*
X317912380Y-164675238D01*
X317007619Y-164294285D02*
X316960000Y-164246666D01*
X316912380Y-164151428D01*
X316912380Y-163913333D01*
X316960000Y-163818095D01*
X317007619Y-163770476D01*
X317102857Y-163722857D01*
X317198095Y-163722857D01*
X317340952Y-163770476D01*
X317912380Y-164341904D01*
X317912380Y-163722857D01*
X317912380Y-163294285D02*
X316912380Y-163294285D01*
X317531428Y-163199047D02*
X317912380Y-162913333D01*
X317245714Y-162913333D02*
X317626666Y-163294285D01*
D12*
X316413095Y-164121666D02*
X316294047Y-164205000D01*
X316413095Y-164264523D02*
X316163095Y-164264523D01*
X316163095Y-164169285D01*
X316175000Y-164145476D01*
X316186904Y-164133571D01*
X316210714Y-164121666D01*
X316246428Y-164121666D01*
X316270238Y-164133571D01*
X316282142Y-164145476D01*
X316294047Y-164169285D01*
X316294047Y-164264523D01*
X316246428Y-163907380D02*
X316413095Y-163907380D01*
X316151190Y-163966904D02*
X316329761Y-164026428D01*
X316329761Y-163871666D01*
D11*
X320392380Y-169515238D02*
X320392380Y-170086666D01*
X320392380Y-169800952D02*
X319392380Y-169800952D01*
X319535238Y-169896190D01*
X319630476Y-169991428D01*
X319678095Y-170086666D01*
X319392380Y-168896190D02*
X319392380Y-168800952D01*
X319440000Y-168705714D01*
X319487619Y-168658095D01*
X319582857Y-168610476D01*
X319773333Y-168562857D01*
X320011428Y-168562857D01*
X320201904Y-168610476D01*
X320297142Y-168658095D01*
X320344761Y-168705714D01*
X320392380Y-168800952D01*
X320392380Y-168896190D01*
X320344761Y-168991428D01*
X320297142Y-169039047D01*
X320201904Y-169086666D01*
X320011428Y-169134285D01*
X319773333Y-169134285D01*
X319582857Y-169086666D01*
X319487619Y-169039047D01*
X319440000Y-168991428D01*
X319392380Y-168896190D01*
X320392380Y-168134285D02*
X319392380Y-168134285D01*
X320011428Y-168039047D02*
X320392380Y-167753333D01*
X319725714Y-167753333D02*
X320106666Y-168134285D01*
D12*
X321213095Y-168961666D02*
X321094047Y-169045000D01*
X321213095Y-169104523D02*
X320963095Y-169104523D01*
X320963095Y-169009285D01*
X320975000Y-168985476D01*
X320986904Y-168973571D01*
X321010714Y-168961666D01*
X321046428Y-168961666D01*
X321070238Y-168973571D01*
X321082142Y-168985476D01*
X321094047Y-169009285D01*
X321094047Y-169104523D01*
X320963095Y-168747380D02*
X320963095Y-168795000D01*
X320975000Y-168818809D01*
X320986904Y-168830714D01*
X321022619Y-168854523D01*
X321070238Y-168866428D01*
X321165476Y-168866428D01*
X321189285Y-168854523D01*
X321201190Y-168842619D01*
X321213095Y-168818809D01*
X321213095Y-168771190D01*
X321201190Y-168747380D01*
X321189285Y-168735476D01*
X321165476Y-168723571D01*
X321105952Y-168723571D01*
X321082142Y-168735476D01*
X321070238Y-168747380D01*
X321058333Y-168771190D01*
X321058333Y-168818809D01*
X321070238Y-168842619D01*
X321082142Y-168854523D01*
X321105952Y-168866428D01*
D11*
X314712380Y-164960952D02*
X314712380Y-165437142D01*
X315188571Y-165484761D01*
X315140952Y-165437142D01*
X315093333Y-165341904D01*
X315093333Y-165103809D01*
X315140952Y-165008571D01*
X315188571Y-164960952D01*
X315283809Y-164913333D01*
X315521904Y-164913333D01*
X315617142Y-164960952D01*
X315664761Y-165008571D01*
X315712380Y-165103809D01*
X315712380Y-165341904D01*
X315664761Y-165437142D01*
X315617142Y-165484761D01*
X315617142Y-164484761D02*
X315664761Y-164437142D01*
X315712380Y-164484761D01*
X315664761Y-164532380D01*
X315617142Y-164484761D01*
X315712380Y-164484761D01*
X315712380Y-163484761D02*
X315712380Y-164056190D01*
X315712380Y-163770476D02*
X314712380Y-163770476D01*
X314855238Y-163865714D01*
X314950476Y-163960952D01*
X314998095Y-164056190D01*
X315712380Y-163056190D02*
X314712380Y-163056190D01*
X315331428Y-162960952D02*
X315712380Y-162675238D01*
X315045714Y-162675238D02*
X315426666Y-163056190D01*
D12*
X314213095Y-164121666D02*
X314094047Y-164205000D01*
X314213095Y-164264523D02*
X313963095Y-164264523D01*
X313963095Y-164169285D01*
X313975000Y-164145476D01*
X313986904Y-164133571D01*
X314010714Y-164121666D01*
X314046428Y-164121666D01*
X314070238Y-164133571D01*
X314082142Y-164145476D01*
X314094047Y-164169285D01*
X314094047Y-164264523D01*
X313963095Y-163895476D02*
X313963095Y-164014523D01*
X314082142Y-164026428D01*
X314070238Y-164014523D01*
X314058333Y-163990714D01*
X314058333Y-163931190D01*
X314070238Y-163907380D01*
X314082142Y-163895476D01*
X314105952Y-163883571D01*
X314165476Y-163883571D01*
X314189285Y-163895476D01*
X314201190Y-163907380D01*
X314213095Y-163931190D01*
X314213095Y-163990714D01*
X314201190Y-164014523D01*
X314189285Y-164026428D01*
D11*
X315907619Y-165246666D02*
X315860000Y-165199047D01*
X315812380Y-165103809D01*
X315812380Y-164865714D01*
X315860000Y-164770476D01*
X315907619Y-164722857D01*
X316002857Y-164675238D01*
X316098095Y-164675238D01*
X316240952Y-164722857D01*
X316812380Y-165294285D01*
X316812380Y-164675238D01*
X315907619Y-164294285D02*
X315860000Y-164246666D01*
X315812380Y-164151428D01*
X315812380Y-163913333D01*
X315860000Y-163818095D01*
X315907619Y-163770476D01*
X316002857Y-163722857D01*
X316098095Y-163722857D01*
X316240952Y-163770476D01*
X316812380Y-164341904D01*
X316812380Y-163722857D01*
X316812380Y-163294285D02*
X315812380Y-163294285D01*
X316431428Y-163199047D02*
X316812380Y-162913333D01*
X316145714Y-162913333D02*
X316526666Y-163294285D01*
D12*
X315313095Y-164121666D02*
X315194047Y-164205000D01*
X315313095Y-164264523D02*
X315063095Y-164264523D01*
X315063095Y-164169285D01*
X315075000Y-164145476D01*
X315086904Y-164133571D01*
X315110714Y-164121666D01*
X315146428Y-164121666D01*
X315170238Y-164133571D01*
X315182142Y-164145476D01*
X315194047Y-164169285D01*
X315194047Y-164264523D01*
X315063095Y-164038333D02*
X315063095Y-163883571D01*
X315158333Y-163966904D01*
X315158333Y-163931190D01*
X315170238Y-163907380D01*
X315182142Y-163895476D01*
X315205952Y-163883571D01*
X315265476Y-163883571D01*
X315289285Y-163895476D01*
X315301190Y-163907380D01*
X315313095Y-163931190D01*
X315313095Y-164002619D01*
X315301190Y-164026428D01*
X315289285Y-164038333D01*
D11*
X318012380Y-164960952D02*
X318012380Y-165437142D01*
X318488571Y-165484761D01*
X318440952Y-165437142D01*
X318393333Y-165341904D01*
X318393333Y-165103809D01*
X318440952Y-165008571D01*
X318488571Y-164960952D01*
X318583809Y-164913333D01*
X318821904Y-164913333D01*
X318917142Y-164960952D01*
X318964761Y-165008571D01*
X319012380Y-165103809D01*
X319012380Y-165341904D01*
X318964761Y-165437142D01*
X318917142Y-165484761D01*
X318917142Y-164484761D02*
X318964761Y-164437142D01*
X319012380Y-164484761D01*
X318964761Y-164532380D01*
X318917142Y-164484761D01*
X319012380Y-164484761D01*
X319012380Y-163484761D02*
X319012380Y-164056190D01*
X319012380Y-163770476D02*
X318012380Y-163770476D01*
X318155238Y-163865714D01*
X318250476Y-163960952D01*
X318298095Y-164056190D01*
X319012380Y-163056190D02*
X318012380Y-163056190D01*
X318631428Y-162960952D02*
X319012380Y-162675238D01*
X318345714Y-162675238D02*
X318726666Y-163056190D01*
D12*
X317513095Y-164121666D02*
X317394047Y-164205000D01*
X317513095Y-164264523D02*
X317263095Y-164264523D01*
X317263095Y-164169285D01*
X317275000Y-164145476D01*
X317286904Y-164133571D01*
X317310714Y-164121666D01*
X317346428Y-164121666D01*
X317370238Y-164133571D01*
X317382142Y-164145476D01*
X317394047Y-164169285D01*
X317394047Y-164264523D01*
X317286904Y-164026428D02*
X317275000Y-164014523D01*
X317263095Y-163990714D01*
X317263095Y-163931190D01*
X317275000Y-163907380D01*
X317286904Y-163895476D01*
X317310714Y-163883571D01*
X317334523Y-163883571D01*
X317370238Y-163895476D01*
X317513095Y-164038333D01*
X317513095Y-163883571D01*
D11*
X310004761Y-187412380D02*
X309433333Y-187412380D01*
X309719047Y-187412380D02*
X309719047Y-186412380D01*
X309623809Y-186555238D01*
X309528571Y-186650476D01*
X309433333Y-186698095D01*
X310623809Y-186412380D02*
X310719047Y-186412380D01*
X310814285Y-186460000D01*
X310861904Y-186507619D01*
X310909523Y-186602857D01*
X310957142Y-186793333D01*
X310957142Y-187031428D01*
X310909523Y-187221904D01*
X310861904Y-187317142D01*
X310814285Y-187364761D01*
X310719047Y-187412380D01*
X310623809Y-187412380D01*
X310528571Y-187364761D01*
X310480952Y-187317142D01*
X310433333Y-187221904D01*
X310385714Y-187031428D01*
X310385714Y-186793333D01*
X310433333Y-186602857D01*
X310480952Y-186507619D01*
X310528571Y-186460000D01*
X310623809Y-186412380D01*
X311385714Y-187412380D02*
X311385714Y-186412380D01*
X311480952Y-187031428D02*
X311766666Y-187412380D01*
X311766666Y-186745714D02*
X311385714Y-187126666D01*
D12*
X310558333Y-185913095D02*
X310475000Y-185794047D01*
X310415476Y-185913095D02*
X310415476Y-185663095D01*
X310510714Y-185663095D01*
X310534523Y-185675000D01*
X310546428Y-185686904D01*
X310558333Y-185710714D01*
X310558333Y-185746428D01*
X310546428Y-185770238D01*
X310534523Y-185782142D01*
X310510714Y-185794047D01*
X310415476Y-185794047D01*
X310796428Y-185913095D02*
X310653571Y-185913095D01*
X310725000Y-185913095D02*
X310725000Y-185663095D01*
X310701190Y-185698809D01*
X310677380Y-185722619D01*
X310653571Y-185734523D01*
D11*
X309292380Y-184875238D02*
X309292380Y-185446666D01*
X309292380Y-185160952D02*
X308292380Y-185160952D01*
X308435238Y-185256190D01*
X308530476Y-185351428D01*
X308578095Y-185446666D01*
X308625714Y-184018095D02*
X309292380Y-184018095D01*
X308625714Y-184446666D02*
X309149523Y-184446666D01*
X309244761Y-184399047D01*
X309292380Y-184303809D01*
X309292380Y-184160952D01*
X309244761Y-184065714D01*
X309197142Y-184018095D01*
X308768571Y-183208571D02*
X308768571Y-183541904D01*
X309292380Y-183541904D02*
X308292380Y-183541904D01*
X308292380Y-183065714D01*
D12*
X310089285Y-184321666D02*
X310101190Y-184333571D01*
X310113095Y-184369285D01*
X310113095Y-184393095D01*
X310101190Y-184428809D01*
X310077380Y-184452619D01*
X310053571Y-184464523D01*
X310005952Y-184476428D01*
X309970238Y-184476428D01*
X309922619Y-184464523D01*
X309898809Y-184452619D01*
X309875000Y-184428809D01*
X309863095Y-184393095D01*
X309863095Y-184369285D01*
X309875000Y-184333571D01*
X309886904Y-184321666D01*
X309863095Y-184238333D02*
X309863095Y-184071666D01*
X310113095Y-184178809D01*
D11*
X311712380Y-172091428D02*
X311712380Y-172662857D01*
X311712380Y-172377142D02*
X310712380Y-172377142D01*
X310855238Y-172472380D01*
X310950476Y-172567619D01*
X310998095Y-172662857D01*
X310712380Y-171472380D02*
X310712380Y-171377142D01*
X310760000Y-171281904D01*
X310807619Y-171234285D01*
X310902857Y-171186666D01*
X311093333Y-171139047D01*
X311331428Y-171139047D01*
X311521904Y-171186666D01*
X311617142Y-171234285D01*
X311664761Y-171281904D01*
X311712380Y-171377142D01*
X311712380Y-171472380D01*
X311664761Y-171567619D01*
X311617142Y-171615238D01*
X311521904Y-171662857D01*
X311331428Y-171710476D01*
X311093333Y-171710476D01*
X310902857Y-171662857D01*
X310807619Y-171615238D01*
X310760000Y-171567619D01*
X310712380Y-171472380D01*
X311045714Y-170281904D02*
X311712380Y-170281904D01*
X311045714Y-170710476D02*
X311569523Y-170710476D01*
X311664761Y-170662857D01*
X311712380Y-170567619D01*
X311712380Y-170424761D01*
X311664761Y-170329523D01*
X311617142Y-170281904D01*
X311188571Y-169472380D02*
X311188571Y-169805714D01*
X311712380Y-169805714D02*
X310712380Y-169805714D01*
X310712380Y-169329523D01*
D12*
X310189285Y-171061666D02*
X310201190Y-171073571D01*
X310213095Y-171109285D01*
X310213095Y-171133095D01*
X310201190Y-171168809D01*
X310177380Y-171192619D01*
X310153571Y-171204523D01*
X310105952Y-171216428D01*
X310070238Y-171216428D01*
X310022619Y-171204523D01*
X309998809Y-171192619D01*
X309975000Y-171168809D01*
X309963095Y-171133095D01*
X309963095Y-171109285D01*
X309975000Y-171073571D01*
X309986904Y-171061666D01*
X309963095Y-170847380D02*
X309963095Y-170895000D01*
X309975000Y-170918809D01*
X309986904Y-170930714D01*
X310022619Y-170954523D01*
X310070238Y-170966428D01*
X310165476Y-170966428D01*
X310189285Y-170954523D01*
X310201190Y-170942619D01*
X310213095Y-170918809D01*
X310213095Y-170871190D01*
X310201190Y-170847380D01*
X310189285Y-170835476D01*
X310165476Y-170823571D01*
X310105952Y-170823571D01*
X310082142Y-170835476D01*
X310070238Y-170847380D01*
X310058333Y-170871190D01*
X310058333Y-170918809D01*
X310070238Y-170942619D01*
X310082142Y-170954523D01*
X310105952Y-170966428D01*
D11*
X311377142Y-182092380D02*
X311472380Y-182092380D01*
X311567619Y-182140000D01*
X311615238Y-182187619D01*
X311662857Y-182282857D01*
X311710476Y-182473333D01*
X311710476Y-182711428D01*
X311662857Y-182901904D01*
X311615238Y-182997142D01*
X311567619Y-183044761D01*
X311472380Y-183092380D01*
X311377142Y-183092380D01*
X311281904Y-183044761D01*
X311234285Y-182997142D01*
X311186666Y-182901904D01*
X311139047Y-182711428D01*
X311139047Y-182473333D01*
X311186666Y-182282857D01*
X311234285Y-182187619D01*
X311281904Y-182140000D01*
X311377142Y-182092380D01*
X312139047Y-182997142D02*
X312186666Y-183044761D01*
X312139047Y-183092380D01*
X312091428Y-183044761D01*
X312139047Y-182997142D01*
X312139047Y-183092380D01*
X313139047Y-183092380D02*
X312567619Y-183092380D01*
X312853333Y-183092380D02*
X312853333Y-182092380D01*
X312758095Y-182235238D01*
X312662857Y-182330476D01*
X312567619Y-182378095D01*
X313996190Y-182425714D02*
X313996190Y-183092380D01*
X313567619Y-182425714D02*
X313567619Y-182949523D01*
X313615238Y-183044761D01*
X313710476Y-183092380D01*
X313853333Y-183092380D01*
X313948571Y-183044761D01*
X313996190Y-182997142D01*
X314805714Y-182568571D02*
X314472380Y-182568571D01*
X314472380Y-183092380D02*
X314472380Y-182092380D01*
X314948571Y-182092380D01*
D12*
X312978333Y-183889285D02*
X312966428Y-183901190D01*
X312930714Y-183913095D01*
X312906904Y-183913095D01*
X312871190Y-183901190D01*
X312847380Y-183877380D01*
X312835476Y-183853571D01*
X312823571Y-183805952D01*
X312823571Y-183770238D01*
X312835476Y-183722619D01*
X312847380Y-183698809D01*
X312871190Y-183675000D01*
X312906904Y-183663095D01*
X312930714Y-183663095D01*
X312966428Y-183675000D01*
X312978333Y-183686904D01*
X313204523Y-183663095D02*
X313085476Y-183663095D01*
X313073571Y-183782142D01*
X313085476Y-183770238D01*
X313109285Y-183758333D01*
X313168809Y-183758333D01*
X313192619Y-183770238D01*
X313204523Y-183782142D01*
X313216428Y-183805952D01*
X313216428Y-183865476D01*
X313204523Y-183889285D01*
X313192619Y-183901190D01*
X313168809Y-183913095D01*
X313109285Y-183913095D01*
X313085476Y-183901190D01*
X313073571Y-183889285D01*
D11*
X320612380Y-170562857D02*
X320612380Y-170467619D01*
X320660000Y-170372380D01*
X320707619Y-170324761D01*
X320802857Y-170277142D01*
X320993333Y-170229523D01*
X321231428Y-170229523D01*
X321421904Y-170277142D01*
X321517142Y-170324761D01*
X321564761Y-170372380D01*
X321612380Y-170467619D01*
X321612380Y-170562857D01*
X321564761Y-170658095D01*
X321517142Y-170705714D01*
X321421904Y-170753333D01*
X321231428Y-170800952D01*
X320993333Y-170800952D01*
X320802857Y-170753333D01*
X320707619Y-170705714D01*
X320660000Y-170658095D01*
X320612380Y-170562857D01*
X321517142Y-169800952D02*
X321564761Y-169753333D01*
X321612380Y-169800952D01*
X321564761Y-169848571D01*
X321517142Y-169800952D01*
X321612380Y-169800952D01*
X321612380Y-168800952D02*
X321612380Y-169372380D01*
X321612380Y-169086666D02*
X320612380Y-169086666D01*
X320755238Y-169181904D01*
X320850476Y-169277142D01*
X320898095Y-169372380D01*
X320945714Y-167943809D02*
X321612380Y-167943809D01*
X320945714Y-168372380D02*
X321469523Y-168372380D01*
X321564761Y-168324761D01*
X321612380Y-168229523D01*
X321612380Y-168086666D01*
X321564761Y-167991428D01*
X321517142Y-167943809D01*
X321088571Y-167134285D02*
X321088571Y-167467619D01*
X321612380Y-167467619D02*
X320612380Y-167467619D01*
X320612380Y-166991428D01*
D12*
X320089285Y-168961666D02*
X320101190Y-168973571D01*
X320113095Y-169009285D01*
X320113095Y-169033095D01*
X320101190Y-169068809D01*
X320077380Y-169092619D01*
X320053571Y-169104523D01*
X320005952Y-169116428D01*
X319970238Y-169116428D01*
X319922619Y-169104523D01*
X319898809Y-169092619D01*
X319875000Y-169068809D01*
X319863095Y-169033095D01*
X319863095Y-169009285D01*
X319875000Y-168973571D01*
X319886904Y-168961666D01*
X319946428Y-168747380D02*
X320113095Y-168747380D01*
X319851190Y-168806904D02*
X320029761Y-168866428D01*
X320029761Y-168711666D01*
D11*
X309392380Y-185922857D02*
X309392380Y-185827619D01*
X309440000Y-185732380D01*
X309487619Y-185684761D01*
X309582857Y-185637142D01*
X309773333Y-185589523D01*
X310011428Y-185589523D01*
X310201904Y-185637142D01*
X310297142Y-185684761D01*
X310344761Y-185732380D01*
X310392380Y-185827619D01*
X310392380Y-185922857D01*
X310344761Y-186018095D01*
X310297142Y-186065714D01*
X310201904Y-186113333D01*
X310011428Y-186160952D01*
X309773333Y-186160952D01*
X309582857Y-186113333D01*
X309487619Y-186065714D01*
X309440000Y-186018095D01*
X309392380Y-185922857D01*
X310297142Y-185160952D02*
X310344761Y-185113333D01*
X310392380Y-185160952D01*
X310344761Y-185208571D01*
X310297142Y-185160952D01*
X310392380Y-185160952D01*
X310392380Y-184160952D02*
X310392380Y-184732380D01*
X310392380Y-184446666D02*
X309392380Y-184446666D01*
X309535238Y-184541904D01*
X309630476Y-184637142D01*
X309678095Y-184732380D01*
X309725714Y-183303809D02*
X310392380Y-183303809D01*
X309725714Y-183732380D02*
X310249523Y-183732380D01*
X310344761Y-183684761D01*
X310392380Y-183589523D01*
X310392380Y-183446666D01*
X310344761Y-183351428D01*
X310297142Y-183303809D01*
X309868571Y-182494285D02*
X309868571Y-182827619D01*
X310392380Y-182827619D02*
X309392380Y-182827619D01*
X309392380Y-182351428D01*
D12*
X311189285Y-184321666D02*
X311201190Y-184333571D01*
X311213095Y-184369285D01*
X311213095Y-184393095D01*
X311201190Y-184428809D01*
X311177380Y-184452619D01*
X311153571Y-184464523D01*
X311105952Y-184476428D01*
X311070238Y-184476428D01*
X311022619Y-184464523D01*
X310998809Y-184452619D01*
X310975000Y-184428809D01*
X310963095Y-184393095D01*
X310963095Y-184369285D01*
X310975000Y-184333571D01*
X310986904Y-184321666D01*
X310963095Y-184238333D02*
X310963095Y-184083571D01*
X311058333Y-184166904D01*
X311058333Y-184131190D01*
X311070238Y-184107380D01*
X311082142Y-184095476D01*
X311105952Y-184083571D01*
X311165476Y-184083571D01*
X311189285Y-184095476D01*
X311201190Y-184107380D01*
X311213095Y-184131190D01*
X311213095Y-184202619D01*
X311201190Y-184226428D01*
X311189285Y-184238333D01*
D11*
X314257619Y-187072857D02*
X314210000Y-187025238D01*
X314162380Y-186930000D01*
X314162380Y-186691904D01*
X314210000Y-186596666D01*
X314257619Y-186549047D01*
X314352857Y-186501428D01*
X314448095Y-186501428D01*
X314590952Y-186549047D01*
X315162380Y-187120476D01*
X315162380Y-186501428D01*
X314257619Y-186120476D02*
X314210000Y-186072857D01*
X314162380Y-185977619D01*
X314162380Y-185739523D01*
X314210000Y-185644285D01*
X314257619Y-185596666D01*
X314352857Y-185549047D01*
X314448095Y-185549047D01*
X314590952Y-185596666D01*
X315162380Y-186168095D01*
X315162380Y-185549047D01*
X314495714Y-185120476D02*
X315495714Y-185120476D01*
X314543333Y-185120476D02*
X314495714Y-185025238D01*
X314495714Y-184834761D01*
X314543333Y-184739523D01*
X314590952Y-184691904D01*
X314686190Y-184644285D01*
X314971904Y-184644285D01*
X315067142Y-184691904D01*
X315114761Y-184739523D01*
X315162380Y-184834761D01*
X315162380Y-185025238D01*
X315114761Y-185120476D01*
X314638571Y-183882380D02*
X314638571Y-184215714D01*
X315162380Y-184215714D02*
X314162380Y-184215714D01*
X314162380Y-183739523D01*
D12*
X313639285Y-185471666D02*
X313651190Y-185483571D01*
X313663095Y-185519285D01*
X313663095Y-185543095D01*
X313651190Y-185578809D01*
X313627380Y-185602619D01*
X313603571Y-185614523D01*
X313555952Y-185626428D01*
X313520238Y-185626428D01*
X313472619Y-185614523D01*
X313448809Y-185602619D01*
X313425000Y-185578809D01*
X313413095Y-185543095D01*
X313413095Y-185519285D01*
X313425000Y-185483571D01*
X313436904Y-185471666D01*
X313436904Y-185376428D02*
X313425000Y-185364523D01*
X313413095Y-185340714D01*
X313413095Y-185281190D01*
X313425000Y-185257380D01*
X313436904Y-185245476D01*
X313460714Y-185233571D01*
X313484523Y-185233571D01*
X313520238Y-185245476D01*
X313663095Y-185388333D01*
X313663095Y-185233571D01*
D11*
X317187619Y-187102857D02*
X317140000Y-187055238D01*
X317092380Y-186960000D01*
X317092380Y-186721904D01*
X317140000Y-186626666D01*
X317187619Y-186579047D01*
X317282857Y-186531428D01*
X317378095Y-186531428D01*
X317520952Y-186579047D01*
X318092380Y-187150476D01*
X318092380Y-186531428D01*
X317187619Y-186150476D02*
X317140000Y-186102857D01*
X317092380Y-186007619D01*
X317092380Y-185769523D01*
X317140000Y-185674285D01*
X317187619Y-185626666D01*
X317282857Y-185579047D01*
X317378095Y-185579047D01*
X317520952Y-185626666D01*
X318092380Y-186198095D01*
X318092380Y-185579047D01*
X317425714Y-185150476D02*
X318425714Y-185150476D01*
X317473333Y-185150476D02*
X317425714Y-185055238D01*
X317425714Y-184864761D01*
X317473333Y-184769523D01*
X317520952Y-184721904D01*
X317616190Y-184674285D01*
X317901904Y-184674285D01*
X317997142Y-184721904D01*
X318044761Y-184769523D01*
X318092380Y-184864761D01*
X318092380Y-185055238D01*
X318044761Y-185150476D01*
X317568571Y-183912380D02*
X317568571Y-184245714D01*
X318092380Y-184245714D02*
X317092380Y-184245714D01*
X317092380Y-183769523D01*
D12*
X318889285Y-185501666D02*
X318901190Y-185513571D01*
X318913095Y-185549285D01*
X318913095Y-185573095D01*
X318901190Y-185608809D01*
X318877380Y-185632619D01*
X318853571Y-185644523D01*
X318805952Y-185656428D01*
X318770238Y-185656428D01*
X318722619Y-185644523D01*
X318698809Y-185632619D01*
X318675000Y-185608809D01*
X318663095Y-185573095D01*
X318663095Y-185549285D01*
X318675000Y-185513571D01*
X318686904Y-185501666D01*
X318913095Y-185263571D02*
X318913095Y-185406428D01*
X318913095Y-185335000D02*
X318663095Y-185335000D01*
X318698809Y-185358809D01*
X318722619Y-185382619D01*
X318734523Y-185406428D01*
D11*
X309691785Y-181564166D02*
X310167976Y-181564166D01*
X309596547Y-181849880D02*
X309929880Y-180849880D01*
X310263214Y-181849880D01*
X310453690Y-180849880D02*
X311025119Y-180849880D01*
X310739404Y-181849880D02*
X310739404Y-180849880D01*
X311358452Y-181849880D02*
X311358452Y-181183214D01*
X311358452Y-181278452D02*
X311406071Y-181230833D01*
X311501309Y-181183214D01*
X311644166Y-181183214D01*
X311739404Y-181230833D01*
X311787023Y-181326071D01*
X311787023Y-181849880D01*
X311787023Y-181326071D02*
X311834642Y-181230833D01*
X311929880Y-181183214D01*
X312072738Y-181183214D01*
X312167976Y-181230833D01*
X312215595Y-181326071D01*
X312215595Y-181849880D01*
X313072738Y-181802261D02*
X312977500Y-181849880D01*
X312787023Y-181849880D01*
X312691785Y-181802261D01*
X312644166Y-181707023D01*
X312644166Y-181326071D01*
X312691785Y-181230833D01*
X312787023Y-181183214D01*
X312977500Y-181183214D01*
X313072738Y-181230833D01*
X313120357Y-181326071D01*
X313120357Y-181421309D01*
X312644166Y-181516547D01*
X313977500Y-181183214D02*
X313977500Y-181992738D01*
X313929880Y-182087976D01*
X313882261Y-182135595D01*
X313787023Y-182183214D01*
X313644166Y-182183214D01*
X313548928Y-182135595D01*
X313977500Y-181802261D02*
X313882261Y-181849880D01*
X313691785Y-181849880D01*
X313596547Y-181802261D01*
X313548928Y-181754642D01*
X313501309Y-181659404D01*
X313501309Y-181373690D01*
X313548928Y-181278452D01*
X313596547Y-181230833D01*
X313691785Y-181183214D01*
X313882261Y-181183214D01*
X313977500Y-181230833D01*
X314882261Y-181849880D02*
X314882261Y-181326071D01*
X314834642Y-181230833D01*
X314739404Y-181183214D01*
X314548928Y-181183214D01*
X314453690Y-181230833D01*
X314882261Y-181802261D02*
X314787023Y-181849880D01*
X314548928Y-181849880D01*
X314453690Y-181802261D01*
X314406071Y-181707023D01*
X314406071Y-181611785D01*
X314453690Y-181516547D01*
X314548928Y-181468928D01*
X314787023Y-181468928D01*
X314882261Y-181421309D01*
X315263214Y-180849880D02*
X315882261Y-180849880D01*
X315548928Y-181230833D01*
X315691785Y-181230833D01*
X315787023Y-181278452D01*
X315834642Y-181326071D01*
X315882261Y-181421309D01*
X315882261Y-181659404D01*
X315834642Y-181754642D01*
X315787023Y-181802261D01*
X315691785Y-181849880D01*
X315406071Y-181849880D01*
X315310833Y-181802261D01*
X315263214Y-181754642D01*
X316263214Y-180945119D02*
X316310833Y-180897500D01*
X316406071Y-180849880D01*
X316644166Y-180849880D01*
X316739404Y-180897500D01*
X316787023Y-180945119D01*
X316834642Y-181040357D01*
X316834642Y-181135595D01*
X316787023Y-181278452D01*
X316215595Y-181849880D01*
X316834642Y-181849880D01*
X317263214Y-180849880D02*
X317263214Y-181659404D01*
X317310833Y-181754642D01*
X317358452Y-181802261D01*
X317453690Y-181849880D01*
X317644166Y-181849880D01*
X317739404Y-181802261D01*
X317787023Y-181754642D01*
X317834642Y-181659404D01*
X317834642Y-180849880D01*
X318739404Y-181183214D02*
X318739404Y-181849880D01*
X318501309Y-180802261D02*
X318263214Y-181516547D01*
X318882261Y-181516547D01*
X319263214Y-181468928D02*
X320025119Y-181468928D01*
X320501309Y-181849880D02*
X320501309Y-180849880D01*
X320834642Y-181564166D01*
X321167976Y-180849880D01*
X321167976Y-181849880D01*
X321644166Y-180849880D02*
X321644166Y-181659404D01*
X321691785Y-181754642D01*
X321739404Y-181802261D01*
X321834642Y-181849880D01*
X322025119Y-181849880D01*
X322120357Y-181802261D01*
X322167976Y-181754642D01*
X322215595Y-181659404D01*
X322215595Y-180849880D01*
X315215595Y-176029880D02*
X315215595Y-176839404D01*
X315263214Y-176934642D01*
X315310833Y-176982261D01*
X315406071Y-177029880D01*
X315596547Y-177029880D01*
X315691785Y-176982261D01*
X315739404Y-176934642D01*
X315787023Y-176839404D01*
X315787023Y-176029880D01*
X316787023Y-177029880D02*
X316215595Y-177029880D01*
X316501309Y-177029880D02*
X316501309Y-176029880D01*
X316406071Y-176172738D01*
X316310833Y-176267976D01*
X316215595Y-176315595D01*
X309127142Y-183397142D02*
X309079523Y-183444761D01*
X308936666Y-183492380D01*
X308841428Y-183492380D01*
X308698571Y-183444761D01*
X308603333Y-183349523D01*
X308555714Y-183254285D01*
X308508095Y-183063809D01*
X308508095Y-182920952D01*
X308555714Y-182730476D01*
X308603333Y-182635238D01*
X308698571Y-182540000D01*
X308841428Y-182492380D01*
X308936666Y-182492380D01*
X309079523Y-182540000D01*
X309127142Y-182587619D01*
X309555714Y-183492380D02*
X309555714Y-182825714D01*
X309555714Y-183016190D02*
X309603333Y-182920952D01*
X309650952Y-182873333D01*
X309746190Y-182825714D01*
X309841428Y-182825714D01*
X310079523Y-182825714D02*
X310317619Y-183492380D01*
X310555714Y-182825714D02*
X310317619Y-183492380D01*
X310222380Y-183730476D01*
X310174761Y-183778095D01*
X310079523Y-183825714D01*
X310889047Y-183444761D02*
X310984285Y-183492380D01*
X311174761Y-183492380D01*
X311270000Y-183444761D01*
X311317619Y-183349523D01*
X311317619Y-183301904D01*
X311270000Y-183206666D01*
X311174761Y-183159047D01*
X311031904Y-183159047D01*
X310936666Y-183111428D01*
X310889047Y-183016190D01*
X310889047Y-182968571D01*
X310936666Y-182873333D01*
X311031904Y-182825714D01*
X311174761Y-182825714D01*
X311270000Y-182873333D01*
X311603333Y-182825714D02*
X311984285Y-182825714D01*
X311746190Y-182492380D02*
X311746190Y-183349523D01*
X311793809Y-183444761D01*
X311889047Y-183492380D01*
X311984285Y-183492380D01*
X312746190Y-183492380D02*
X312746190Y-182968571D01*
X312698571Y-182873333D01*
X312603333Y-182825714D01*
X312412857Y-182825714D01*
X312317619Y-182873333D01*
X312746190Y-183444761D02*
X312650952Y-183492380D01*
X312412857Y-183492380D01*
X312317619Y-183444761D01*
X312270000Y-183349523D01*
X312270000Y-183254285D01*
X312317619Y-183159047D01*
X312412857Y-183111428D01*
X312650952Y-183111428D01*
X312746190Y-183063809D01*
X313365238Y-183492380D02*
X313270000Y-183444761D01*
X313222380Y-183349523D01*
X313222380Y-182492380D01*
X313508095Y-183587619D02*
X314270000Y-183587619D01*
X315031904Y-182540000D02*
X314936666Y-182492380D01*
X314793809Y-182492380D01*
X314650952Y-182540000D01*
X314555714Y-182635238D01*
X314508095Y-182730476D01*
X314460476Y-182920952D01*
X314460476Y-183063809D01*
X314508095Y-183254285D01*
X314555714Y-183349523D01*
X314650952Y-183444761D01*
X314793809Y-183492380D01*
X314889047Y-183492380D01*
X315031904Y-183444761D01*
X315079523Y-183397142D01*
X315079523Y-183063809D01*
X314889047Y-183063809D01*
X315508095Y-183492380D02*
X315508095Y-182492380D01*
X316079523Y-183492380D01*
X316079523Y-182492380D01*
X316555714Y-183492380D02*
X316555714Y-182492380D01*
X316793809Y-182492380D01*
X316936666Y-182540000D01*
X317031904Y-182635238D01*
X317079523Y-182730476D01*
X317127142Y-182920952D01*
X317127142Y-183063809D01*
X317079523Y-183254285D01*
X317031904Y-183349523D01*
X316936666Y-183444761D01*
X316793809Y-183492380D01*
X316555714Y-183492380D01*
X317508095Y-182587619D02*
X317555714Y-182540000D01*
X317650952Y-182492380D01*
X317889047Y-182492380D01*
X317984285Y-182540000D01*
X318031904Y-182587619D01*
X318079523Y-182682857D01*
X318079523Y-182778095D01*
X318031904Y-182920952D01*
X317460476Y-183492380D01*
X318079523Y-183492380D01*
X318936666Y-182825714D02*
X318936666Y-183492380D01*
X318698571Y-182444761D02*
X318460476Y-183159047D01*
X319079523Y-183159047D01*
X319222380Y-183587619D02*
X319984285Y-183587619D01*
X320174761Y-183444761D02*
X320317619Y-183492380D01*
X320555714Y-183492380D01*
X320650952Y-183444761D01*
X320698571Y-183397142D01*
X320746190Y-183301904D01*
X320746190Y-183206666D01*
X320698571Y-183111428D01*
X320650952Y-183063809D01*
X320555714Y-183016190D01*
X320365238Y-182968571D01*
X320270000Y-182920952D01*
X320222380Y-182873333D01*
X320174761Y-182778095D01*
X320174761Y-182682857D01*
X320222380Y-182587619D01*
X320270000Y-182540000D01*
X320365238Y-182492380D01*
X320603333Y-182492380D01*
X320746190Y-182540000D01*
X321174761Y-183492380D02*
X321174761Y-182825714D01*
X321174761Y-182920952D02*
X321222380Y-182873333D01*
X321317619Y-182825714D01*
X321460476Y-182825714D01*
X321555714Y-182873333D01*
X321603333Y-182968571D01*
X321603333Y-183492380D01*
X321603333Y-182968571D02*
X321650952Y-182873333D01*
X321746190Y-182825714D01*
X321889047Y-182825714D01*
X321984285Y-182873333D01*
X322031904Y-182968571D01*
X322031904Y-183492380D01*
X322936666Y-183492380D02*
X322936666Y-182968571D01*
X322889047Y-182873333D01*
X322793809Y-182825714D01*
X322603333Y-182825714D01*
X322508095Y-182873333D01*
X322936666Y-183444761D02*
X322841428Y-183492380D01*
X322603333Y-183492380D01*
X322508095Y-183444761D01*
X322460476Y-183349523D01*
X322460476Y-183254285D01*
X322508095Y-183159047D01*
X322603333Y-183111428D01*
X322841428Y-183111428D01*
X322936666Y-183063809D01*
X323555714Y-183492380D02*
X323460476Y-183444761D01*
X323412857Y-183349523D01*
X323412857Y-182492380D01*
X324079523Y-183492380D02*
X323984285Y-183444761D01*
X323936666Y-183349523D01*
X323936666Y-182492380D01*
D13*
X315936666Y-185473333D02*
X315936666Y-185806666D01*
X315703333Y-185106666D02*
X315936666Y-185473333D01*
X316170000Y-185106666D01*
X316770000Y-185806666D02*
X316370000Y-185806666D01*
X316570000Y-185806666D02*
X316570000Y-185106666D01*
X316503333Y-185206666D01*
X316436666Y-185273333D01*
X316370000Y-185306666D01*
D11*
X314261904Y-162902380D02*
X314261904Y-163711904D01*
X314309523Y-163807142D01*
X314357142Y-163854761D01*
X314452380Y-163902380D01*
X314642857Y-163902380D01*
X314738095Y-163854761D01*
X314785714Y-163807142D01*
X314833333Y-163711904D01*
X314833333Y-162902380D01*
X315261904Y-163854761D02*
X315404761Y-163902380D01*
X315642857Y-163902380D01*
X315738095Y-163854761D01*
X315785714Y-163807142D01*
X315833333Y-163711904D01*
X315833333Y-163616666D01*
X315785714Y-163521428D01*
X315738095Y-163473809D01*
X315642857Y-163426190D01*
X315452380Y-163378571D01*
X315357142Y-163330952D01*
X315309523Y-163283333D01*
X315261904Y-163188095D01*
X315261904Y-163092857D01*
X315309523Y-162997619D01*
X315357142Y-162950000D01*
X315452380Y-162902380D01*
X315690476Y-162902380D01*
X315833333Y-162950000D01*
X316595238Y-163378571D02*
X316738095Y-163426190D01*
X316785714Y-163473809D01*
X316833333Y-163569047D01*
X316833333Y-163711904D01*
X316785714Y-163807142D01*
X316738095Y-163854761D01*
X316642857Y-163902380D01*
X316261904Y-163902380D01*
X316261904Y-162902380D01*
X316595238Y-162902380D01*
X316690476Y-162950000D01*
X316738095Y-162997619D01*
X316785714Y-163092857D01*
X316785714Y-163188095D01*
X316738095Y-163283333D01*
X316690476Y-163330952D01*
X316595238Y-163378571D01*
X316261904Y-163378571D01*
X317785714Y-163902380D02*
X317214285Y-163902380D01*
X317500000Y-163902380D02*
X317500000Y-162902380D01*
X317404761Y-163045238D01*
X317309523Y-163140476D01*
X317214285Y-163188095D01*
X304641904Y-190597142D02*
X304594285Y-190644761D01*
X304451428Y-190692380D01*
X304356190Y-190692380D01*
X304213333Y-190644761D01*
X304118095Y-190549523D01*
X304070476Y-190454285D01*
X304022857Y-190263809D01*
X304022857Y-190120952D01*
X304070476Y-189930476D01*
X304118095Y-189835238D01*
X304213333Y-189740000D01*
X304356190Y-189692380D01*
X304451428Y-189692380D01*
X304594285Y-189740000D01*
X304641904Y-189787619D01*
X305213333Y-190692380D02*
X305118095Y-190644761D01*
X305070476Y-190597142D01*
X305022857Y-190501904D01*
X305022857Y-190216190D01*
X305070476Y-190120952D01*
X305118095Y-190073333D01*
X305213333Y-190025714D01*
X305356190Y-190025714D01*
X305451428Y-190073333D01*
X305499047Y-190120952D01*
X305546666Y-190216190D01*
X305546666Y-190501904D01*
X305499047Y-190597142D01*
X305451428Y-190644761D01*
X305356190Y-190692380D01*
X305213333Y-190692380D01*
X305975238Y-190025714D02*
X305975238Y-190692380D01*
X305975238Y-190120952D02*
X306022857Y-190073333D01*
X306118095Y-190025714D01*
X306260952Y-190025714D01*
X306356190Y-190073333D01*
X306403809Y-190168571D01*
X306403809Y-190692380D01*
X306880000Y-190025714D02*
X306880000Y-190692380D01*
X306880000Y-190120952D02*
X306927619Y-190073333D01*
X307022857Y-190025714D01*
X307165714Y-190025714D01*
X307260952Y-190073333D01*
X307308571Y-190168571D01*
X307308571Y-190692380D01*
X307546666Y-190787619D02*
X308308571Y-190787619D01*
X308737142Y-189692380D02*
X308832380Y-189692380D01*
X308927619Y-189740000D01*
X308975238Y-189787619D01*
X309022857Y-189882857D01*
X309070476Y-190073333D01*
X309070476Y-190311428D01*
X309022857Y-190501904D01*
X308975238Y-190597142D01*
X308927619Y-190644761D01*
X308832380Y-190692380D01*
X308737142Y-190692380D01*
X308641904Y-190644761D01*
X308594285Y-190597142D01*
X308546666Y-190501904D01*
X308499047Y-190311428D01*
X308499047Y-190073333D01*
X308546666Y-189882857D01*
X308594285Y-189787619D01*
X308641904Y-189740000D01*
X308737142Y-189692380D01*
X310022857Y-190692380D02*
X309451428Y-190692380D01*
X309737142Y-190692380D02*
X309737142Y-189692380D01*
X309641904Y-189835238D01*
X309546666Y-189930476D01*
X309451428Y-189978095D01*
X310356190Y-190692380D02*
X310880000Y-190025714D01*
X310356190Y-190025714D02*
X310880000Y-190692380D01*
X311784761Y-190692380D02*
X311213333Y-190692380D01*
X311499047Y-190692380D02*
X311499047Y-189692380D01*
X311403809Y-189835238D01*
X311308571Y-189930476D01*
X311213333Y-189978095D01*
X312165714Y-189787619D02*
X312213333Y-189740000D01*
X312308571Y-189692380D01*
X312546666Y-189692380D01*
X312641904Y-189740000D01*
X312689523Y-189787619D01*
X312737142Y-189882857D01*
X312737142Y-189978095D01*
X312689523Y-190120952D01*
X312118095Y-190692380D01*
X312737142Y-190692380D01*
X307832380Y-173833333D02*
X308546666Y-173833333D01*
X308689523Y-173880952D01*
X308784761Y-173976190D01*
X308832380Y-174119047D01*
X308832380Y-174214285D01*
X308832380Y-172833333D02*
X308832380Y-173404761D01*
X308832380Y-173119047D02*
X307832380Y-173119047D01*
X307975238Y-173214285D01*
X308070476Y-173309523D01*
X308118095Y-173404761D01*
X312372380Y-167109523D02*
X312372380Y-167585714D01*
X312848571Y-167633333D01*
X312800952Y-167585714D01*
X312753333Y-167490476D01*
X312753333Y-167252380D01*
X312800952Y-167157142D01*
X312848571Y-167109523D01*
X312943809Y-167061904D01*
X313181904Y-167061904D01*
X313277142Y-167109523D01*
X313324761Y-167157142D01*
X313372380Y-167252380D01*
X313372380Y-167490476D01*
X313324761Y-167585714D01*
X313277142Y-167633333D01*
X312372380Y-166442857D02*
X312372380Y-166347619D01*
X312420000Y-166252380D01*
X312467619Y-166204761D01*
X312562857Y-166157142D01*
X312753333Y-166109523D01*
X312991428Y-166109523D01*
X313181904Y-166157142D01*
X313277142Y-166204761D01*
X313324761Y-166252380D01*
X313372380Y-166347619D01*
X313372380Y-166442857D01*
X313324761Y-166538095D01*
X313277142Y-166585714D01*
X313181904Y-166633333D01*
X312991428Y-166680952D01*
X312753333Y-166680952D01*
X312562857Y-166633333D01*
X312467619Y-166585714D01*
X312420000Y-166538095D01*
X312372380Y-166442857D01*
X312372380Y-165490476D02*
X312372380Y-165395238D01*
X312420000Y-165300000D01*
X312467619Y-165252380D01*
X312562857Y-165204761D01*
X312753333Y-165157142D01*
X312991428Y-165157142D01*
X313181904Y-165204761D01*
X313277142Y-165252380D01*
X313324761Y-165300000D01*
X313372380Y-165395238D01*
X313372380Y-165490476D01*
X313324761Y-165585714D01*
X313277142Y-165633333D01*
X313181904Y-165680952D01*
X312991428Y-165728571D01*
X312753333Y-165728571D01*
X312562857Y-165680952D01*
X312467619Y-165633333D01*
X312420000Y-165585714D01*
X312372380Y-165490476D01*
X313372380Y-164728571D02*
X312705714Y-164728571D01*
X312800952Y-164728571D02*
X312753333Y-164680952D01*
X312705714Y-164585714D01*
X312705714Y-164442857D01*
X312753333Y-164347619D01*
X312848571Y-164300000D01*
X313372380Y-164300000D01*
X312848571Y-164300000D02*
X312753333Y-164252380D01*
X312705714Y-164157142D01*
X312705714Y-164014285D01*
X312753333Y-163919047D01*
X312848571Y-163871428D01*
X313372380Y-163871428D01*
X313086666Y-163442857D02*
X313086666Y-162966666D01*
X313372380Y-163538095D02*
X312372380Y-163204761D01*
X313372380Y-162871428D01*
D14*
X311042857Y-165566666D02*
X311042857Y-165833333D01*
X311461904Y-165833333D02*
X310661904Y-165833333D01*
X310661904Y-165452380D01*
X311461904Y-164728571D02*
X311461904Y-165185714D01*
X311461904Y-164957142D02*
X310661904Y-164957142D01*
X310776190Y-165033333D01*
X310852380Y-165109523D01*
X310890476Y-165185714D01*
M02*
