G04 #@! TF.GenerationSoftware,KiCad,Pcbnew,(5.1.7)-1*
G04 #@! TF.CreationDate,2021-03-17T14:13:31-05:00*
G04 #@! TF.ProjectId,keyboard,6b657962-6f61-4726-942e-6b696361645f,rev?*
G04 #@! TF.SameCoordinates,Original*
G04 #@! TF.FileFunction,Copper,L4,Bot*
G04 #@! TF.FilePolarity,Positive*
%FSLAX46Y46*%
G04 Gerber Fmt 4.6, Leading zero omitted, Abs format (unit mm)*
G04 Created by KiCad (PCBNEW (5.1.7)-1) date 2021-03-17 14:13:31*
%MOMM*%
%LPD*%
G01*
G04 APERTURE LIST*
G04 #@! TA.AperFunction,ComponentPad*
%ADD10O,1.700000X1.700000*%
G04 #@! TD*
G04 #@! TA.AperFunction,ComponentPad*
%ADD11R,1.700000X1.700000*%
G04 #@! TD*
G04 #@! TA.AperFunction,ComponentPad*
%ADD12O,1.000000X2.100000*%
G04 #@! TD*
G04 #@! TA.AperFunction,ComponentPad*
%ADD13O,1.000000X1.600000*%
G04 #@! TD*
G04 #@! TA.AperFunction,ViaPad*
%ADD14C,0.600000*%
G04 #@! TD*
G04 #@! TA.AperFunction,Conductor*
%ADD15C,0.127000*%
G04 #@! TD*
G04 #@! TA.AperFunction,Conductor*
%ADD16C,0.254000*%
G04 #@! TD*
G04 #@! TA.AperFunction,Conductor*
%ADD17C,0.100000*%
G04 #@! TD*
G04 APERTURE END LIST*
D10*
X323620000Y-159530000D03*
X323620000Y-162070000D03*
X323620000Y-164610000D03*
X323620000Y-167150000D03*
X323620000Y-169690000D03*
X323620000Y-172230000D03*
X323620000Y-174770000D03*
X323620000Y-177310000D03*
X323620000Y-179850000D03*
X323620000Y-182390000D03*
X323620000Y-184930000D03*
D11*
X323620000Y-187470000D03*
D12*
X320320000Y-160980000D03*
X311680000Y-160980000D03*
D13*
X320320000Y-156800000D03*
X311680000Y-156800000D03*
D10*
X308380000Y-187470000D03*
X308380000Y-184930000D03*
X308380000Y-182390000D03*
X308380000Y-179850000D03*
X308380000Y-177310000D03*
X308380000Y-174770000D03*
X308380000Y-172230000D03*
X308380000Y-169690000D03*
X308380000Y-167150000D03*
X308380000Y-164610000D03*
X308380000Y-162070000D03*
D11*
X308380000Y-159530000D03*
D14*
X319700000Y-162400000D03*
X313300000Y-172200000D03*
X318588301Y-172127502D03*
X314790545Y-180990545D03*
X319336490Y-180286864D03*
X321919004Y-168599265D03*
X312500000Y-167036490D03*
X311100000Y-187763510D03*
X310699841Y-183100201D03*
X307700000Y-173500000D03*
X309400000Y-171200000D03*
X320430175Y-179800000D03*
X311549390Y-177463500D03*
X320636500Y-170200000D03*
X314099855Y-183527505D03*
X320506230Y-175806232D03*
X320501852Y-176611708D03*
X312700000Y-173800000D03*
X310853917Y-181352512D03*
X320842799Y-177409715D03*
X320407349Y-173900000D03*
X320817043Y-179014853D03*
X316848462Y-183351538D03*
X317646599Y-183296805D03*
X317794518Y-181027495D03*
X318840625Y-180914667D03*
X312600001Y-181000000D03*
X310100000Y-186400000D03*
X316700000Y-166586500D03*
X317948460Y-168335764D03*
X318600000Y-168800000D03*
X311567157Y-178354866D03*
X312637630Y-185121705D03*
X311198517Y-182474628D03*
X311700000Y-179800000D03*
X311944643Y-184721970D03*
X320625765Y-175015211D03*
X308905685Y-176013447D03*
X309267827Y-183509606D03*
X313533492Y-168482862D03*
X315798749Y-165998749D03*
X315000000Y-165200004D03*
X311509595Y-175369848D03*
X312800000Y-168163500D03*
X311154501Y-174177499D03*
D15*
X315300229Y-188327011D02*
X322381033Y-181246207D01*
X309237011Y-188327011D02*
X315300229Y-188327011D01*
X308380000Y-187470000D02*
X309237011Y-188327011D01*
X322381033Y-181246207D02*
X322381033Y-177681035D01*
X322381033Y-177681035D02*
X320506230Y-175806232D01*
X308380000Y-184930000D02*
X308380000Y-185580000D01*
X310000000Y-187200000D02*
X315964777Y-187200000D01*
X315964777Y-187200000D02*
X322054022Y-181110755D01*
X322054022Y-181110755D02*
X322054022Y-177816486D01*
X322054022Y-177816486D02*
X320849244Y-176611708D01*
X308380000Y-185580000D02*
X310000000Y-187200000D01*
X320849244Y-176611708D02*
X320501852Y-176611708D01*
X308380000Y-182390000D02*
X309417488Y-181352512D01*
X309417488Y-181352512D02*
X310853917Y-181352512D01*
X318084793Y-184617521D02*
X321727011Y-180975303D01*
X321727011Y-180975303D02*
X321727011Y-178293927D01*
X315582479Y-183040095D02*
X315582479Y-183941385D01*
X316258615Y-184617521D02*
X318084793Y-184617521D01*
X308969281Y-180439281D02*
X312395625Y-180439281D01*
X308380000Y-179850000D02*
X308969281Y-180439281D01*
X315582479Y-183941385D02*
X316258615Y-184617521D01*
X312688645Y-180146261D02*
X315582479Y-183040095D01*
X312395625Y-180439281D02*
X312688645Y-180146261D01*
X321727011Y-178293927D02*
X320842799Y-177409715D01*
X321400000Y-178800900D02*
X319857991Y-177258891D01*
X319857991Y-174449358D02*
X320407349Y-173900000D01*
X319857991Y-177258891D02*
X319857991Y-174449358D01*
X321400000Y-180839851D02*
X321400000Y-178800900D01*
X317949341Y-184290510D02*
X321400000Y-180839851D01*
X315909490Y-183805933D02*
X316394067Y-184290510D01*
X315909490Y-178709490D02*
X315909490Y-183805933D01*
X316394067Y-184290510D02*
X317949341Y-184290510D01*
X314100000Y-176900000D02*
X315909490Y-178709490D01*
X308790000Y-176900000D02*
X314100000Y-176900000D01*
X308380000Y-177310000D02*
X308790000Y-176900000D01*
X316236501Y-181498963D02*
X316236501Y-181836501D01*
X309473557Y-174770000D02*
X310976546Y-176272989D01*
X310976546Y-176272989D02*
X313935452Y-176272989D01*
X313935452Y-176272989D02*
X316236501Y-178574038D01*
X308380000Y-174770000D02*
X309473557Y-174770000D01*
X316236501Y-178574038D02*
X316236501Y-181836501D01*
X316236501Y-183670481D02*
X316529519Y-183963499D01*
X316236501Y-181836501D02*
X316236501Y-183670481D01*
X316529519Y-183963499D02*
X317813889Y-183963499D01*
X317813889Y-183963499D02*
X321000000Y-180777388D01*
X321000000Y-179400000D02*
X321000000Y-180777388D01*
X320817043Y-179217043D02*
X321000000Y-179400000D01*
X320817043Y-179014853D02*
X320817043Y-179217043D01*
X316609489Y-183112565D02*
X316848462Y-183351538D01*
X316609489Y-181490511D02*
X316609489Y-183112565D01*
X316609489Y-181409489D02*
X316609489Y-181490511D01*
X316609489Y-176809489D02*
X316609489Y-181490511D01*
X315745978Y-175945978D02*
X316609489Y-176809489D01*
X311245978Y-175945978D02*
X315745978Y-175945978D01*
X308380000Y-173080000D02*
X311245978Y-175945978D01*
X308380000Y-172230000D02*
X308380000Y-173080000D01*
X316936499Y-171088959D02*
X316936499Y-182586705D01*
X310470000Y-167600000D02*
X313447540Y-167600000D01*
X308380000Y-169690000D02*
X310470000Y-167600000D01*
X313447540Y-167600000D02*
X316936499Y-171088959D01*
X316936499Y-182586705D02*
X317646599Y-183296805D01*
X308380000Y-162070000D02*
X317794518Y-171484518D01*
X317794518Y-171484518D02*
X317794518Y-181027495D01*
X319151801Y-179637571D02*
X318540626Y-180248746D01*
X318540626Y-180614668D02*
X318840625Y-180914667D01*
X318540626Y-180248746D02*
X318540626Y-180614668D01*
X308380000Y-159530000D02*
X308380000Y-159613984D01*
X308380000Y-159613984D02*
X319151801Y-170385785D01*
X319151801Y-170385785D02*
X319151801Y-179637571D01*
X312600001Y-181000000D02*
X312040411Y-181000000D01*
X312040411Y-181000000D02*
X311124398Y-181916013D01*
X310100000Y-182534907D02*
X310100000Y-186400000D01*
X310718894Y-181916013D02*
X310100000Y-182534907D01*
X311124398Y-181916013D02*
X310718894Y-181916013D01*
X318676500Y-164610000D02*
X316700000Y-166586500D01*
X323620000Y-164610000D02*
X318676500Y-164610000D01*
X322506499Y-168206499D02*
X322335765Y-168035765D01*
X322506499Y-173656499D02*
X322506499Y-168206499D01*
X322335765Y-168035765D02*
X318248459Y-168035765D01*
X318248459Y-168035765D02*
X317948460Y-168335764D01*
X323620000Y-174770000D02*
X322506499Y-173656499D01*
X322179489Y-175869489D02*
X322179489Y-172803753D01*
X318600000Y-169224264D02*
X318600000Y-168800000D01*
X322179489Y-172803753D02*
X318600000Y-169224264D01*
X323620000Y-177310000D02*
X322179489Y-175869489D01*
X312637630Y-183913741D02*
X311198517Y-182474628D01*
X312637630Y-185121705D02*
X312637630Y-183913741D01*
X311893190Y-184670517D02*
X311944643Y-184721970D01*
X311810967Y-184670517D02*
X311893190Y-184670517D01*
X315000004Y-165200004D02*
X315000000Y-165200004D01*
X315798749Y-165998749D02*
X315000004Y-165200004D01*
X312136499Y-169879855D02*
X312136499Y-174742944D01*
X313533492Y-168482862D02*
X312136499Y-169879855D01*
X312136499Y-174742944D02*
X311509595Y-175369848D01*
X312800000Y-168163500D02*
X311154501Y-169808999D01*
X311154501Y-169808999D02*
X311154501Y-174177499D01*
D16*
X316237999Y-171378288D02*
X316237999Y-175446161D01*
X316135921Y-175362387D01*
X316014575Y-175297526D01*
X315882908Y-175257585D01*
X315780287Y-175247478D01*
X315780276Y-175247478D01*
X315745978Y-175244100D01*
X315711680Y-175247478D01*
X312622773Y-175247478D01*
X312632802Y-175239247D01*
X312654665Y-175212607D01*
X312654673Y-175212599D01*
X312720090Y-175132888D01*
X312784950Y-175011543D01*
X312786606Y-175006085D01*
X312824892Y-174879874D01*
X312834999Y-174777253D01*
X312834999Y-174777243D01*
X312838377Y-174742945D01*
X312836720Y-174726122D01*
X312972729Y-174699068D01*
X313142889Y-174628586D01*
X313296028Y-174526262D01*
X313426262Y-174396028D01*
X313528586Y-174242889D01*
X313599068Y-174072729D01*
X313635000Y-173892089D01*
X313635000Y-173707911D01*
X313599068Y-173527271D01*
X313528586Y-173357111D01*
X313426262Y-173203972D01*
X313296028Y-173073738D01*
X313142889Y-172971414D01*
X312972729Y-172900932D01*
X312834999Y-172873535D01*
X312834999Y-170169182D01*
X313586320Y-169417862D01*
X313625581Y-169417862D01*
X313806221Y-169381930D01*
X313976381Y-169311448D01*
X314093143Y-169233430D01*
X316237999Y-171378288D01*
G04 #@! TA.AperFunction,Conductor*
D17*
G36*
X316237999Y-171378288D02*
G01*
X316237999Y-175446161D01*
X316135921Y-175362387D01*
X316014575Y-175297526D01*
X315882908Y-175257585D01*
X315780287Y-175247478D01*
X315780276Y-175247478D01*
X315745978Y-175244100D01*
X315711680Y-175247478D01*
X312622773Y-175247478D01*
X312632802Y-175239247D01*
X312654665Y-175212607D01*
X312654673Y-175212599D01*
X312720090Y-175132888D01*
X312784950Y-175011543D01*
X312786606Y-175006085D01*
X312824892Y-174879874D01*
X312834999Y-174777253D01*
X312834999Y-174777243D01*
X312838377Y-174742945D01*
X312836720Y-174726122D01*
X312972729Y-174699068D01*
X313142889Y-174628586D01*
X313296028Y-174526262D01*
X313426262Y-174396028D01*
X313528586Y-174242889D01*
X313599068Y-174072729D01*
X313635000Y-173892089D01*
X313635000Y-173707911D01*
X313599068Y-173527271D01*
X313528586Y-173357111D01*
X313426262Y-173203972D01*
X313296028Y-173073738D01*
X313142889Y-172971414D01*
X312972729Y-172900932D01*
X312834999Y-172873535D01*
X312834999Y-170169182D01*
X313586320Y-169417862D01*
X313625581Y-169417862D01*
X313806221Y-169381930D01*
X313976381Y-169311448D01*
X314093143Y-169233430D01*
X316237999Y-171378288D01*
G37*
G04 #@! TD.AperFunction*
D16*
X307946842Y-163497932D02*
X308233740Y-163555000D01*
X308526260Y-163555000D01*
X308813158Y-163497932D01*
X308818070Y-163495897D01*
X311769291Y-166447118D01*
X311671414Y-166593601D01*
X311600932Y-166763761D01*
X311573534Y-166901500D01*
X310504297Y-166901500D01*
X310469999Y-166898122D01*
X310435701Y-166901500D01*
X310435691Y-166901500D01*
X310333070Y-166911607D01*
X310201403Y-166951548D01*
X310201401Y-166951549D01*
X310080056Y-167016409D01*
X310000345Y-167081827D01*
X309973697Y-167103697D01*
X309951829Y-167130343D01*
X308818070Y-168264103D01*
X308813158Y-168262068D01*
X308526260Y-168205000D01*
X308233740Y-168205000D01*
X307946842Y-168262068D01*
X307785000Y-168329105D01*
X307785000Y-163430895D01*
X307946842Y-163497932D01*
G04 #@! TA.AperFunction,Conductor*
D17*
G36*
X307946842Y-163497932D02*
G01*
X308233740Y-163555000D01*
X308526260Y-163555000D01*
X308813158Y-163497932D01*
X308818070Y-163495897D01*
X311769291Y-166447118D01*
X311671414Y-166593601D01*
X311600932Y-166763761D01*
X311573534Y-166901500D01*
X310504297Y-166901500D01*
X310469999Y-166898122D01*
X310435701Y-166901500D01*
X310435691Y-166901500D01*
X310333070Y-166911607D01*
X310201403Y-166951548D01*
X310201401Y-166951549D01*
X310080056Y-167016409D01*
X310000345Y-167081827D01*
X309973697Y-167103697D01*
X309951829Y-167130343D01*
X308818070Y-168264103D01*
X308813158Y-168262068D01*
X308526260Y-168205000D01*
X308233740Y-168205000D01*
X307946842Y-168262068D01*
X307785000Y-168329105D01*
X307785000Y-163430895D01*
X307946842Y-163497932D01*
G37*
G04 #@! TD.AperFunction*
D16*
X310545000Y-156444248D02*
X310545000Y-157155751D01*
X310561423Y-157322498D01*
X310626324Y-157536446D01*
X310731716Y-157733623D01*
X310873551Y-157906449D01*
X311046377Y-158048284D01*
X311243553Y-158153676D01*
X311457501Y-158218577D01*
X311680000Y-158240491D01*
X311902498Y-158218577D01*
X312116446Y-158153676D01*
X312313623Y-158048284D01*
X312486449Y-157906449D01*
X312628284Y-157733623D01*
X312733676Y-157536447D01*
X312798577Y-157322499D01*
X312815000Y-157155752D01*
X312815000Y-156444249D01*
X312809165Y-156385000D01*
X319190835Y-156385000D01*
X319185000Y-156444248D01*
X319185000Y-157155751D01*
X319201423Y-157322498D01*
X319266324Y-157536446D01*
X319371716Y-157733623D01*
X319513551Y-157906449D01*
X319686377Y-158048284D01*
X319883553Y-158153676D01*
X320097501Y-158218577D01*
X320320000Y-158240491D01*
X320542498Y-158218577D01*
X320756446Y-158153676D01*
X320953623Y-158048284D01*
X321126449Y-157906449D01*
X321268284Y-157733623D01*
X321373676Y-157536447D01*
X321438577Y-157322499D01*
X321455000Y-157155752D01*
X321455000Y-156444249D01*
X321449165Y-156385000D01*
X324215001Y-156385000D01*
X324215000Y-158166353D01*
X324215000Y-158169105D01*
X324053158Y-158102068D01*
X323766260Y-158045000D01*
X323473740Y-158045000D01*
X323186842Y-158102068D01*
X322916589Y-158214010D01*
X322673368Y-158376525D01*
X322466525Y-158583368D01*
X322304010Y-158826589D01*
X322192068Y-159096842D01*
X322135000Y-159383740D01*
X322135000Y-159676260D01*
X322192068Y-159963158D01*
X322304010Y-160233411D01*
X322466525Y-160476632D01*
X322673368Y-160683475D01*
X322916589Y-160845990D01*
X323186842Y-160957932D01*
X323473740Y-161015000D01*
X323766260Y-161015000D01*
X324053158Y-160957932D01*
X324215000Y-160890895D01*
X324215000Y-163249105D01*
X324053158Y-163182068D01*
X323766260Y-163125000D01*
X323473740Y-163125000D01*
X323186842Y-163182068D01*
X322916589Y-163294010D01*
X322673368Y-163456525D01*
X322466525Y-163663368D01*
X322304010Y-163906589D01*
X322301976Y-163911500D01*
X318710797Y-163911500D01*
X318676499Y-163908122D01*
X318642201Y-163911500D01*
X318642191Y-163911500D01*
X318539570Y-163921607D01*
X318407903Y-163961548D01*
X318407901Y-163961549D01*
X318286556Y-164026409D01*
X318206845Y-164091826D01*
X318206837Y-164091834D01*
X318180197Y-164113697D01*
X318158334Y-164140337D01*
X316661157Y-165637515D01*
X316627335Y-165555860D01*
X316525011Y-165402721D01*
X316394777Y-165272487D01*
X316241638Y-165170163D01*
X316071478Y-165099681D01*
X315927672Y-165071076D01*
X315899068Y-164927275D01*
X315828586Y-164757115D01*
X315726262Y-164603976D01*
X315596028Y-164473742D01*
X315442889Y-164371418D01*
X315272729Y-164300936D01*
X315092089Y-164265004D01*
X314907911Y-164265004D01*
X314727271Y-164300936D01*
X314557111Y-164371418D01*
X314403972Y-164473742D01*
X314315779Y-164561935D01*
X312260514Y-162506671D01*
X312313623Y-162478284D01*
X312486449Y-162336449D01*
X312628284Y-162163623D01*
X312733676Y-161966447D01*
X312798577Y-161752499D01*
X312815000Y-161585752D01*
X312815000Y-161366904D01*
X312829978Y-161373108D01*
X313015448Y-161410000D01*
X313204552Y-161410000D01*
X313390022Y-161373108D01*
X313564731Y-161300741D01*
X313721964Y-161195681D01*
X313855681Y-161061964D01*
X313960741Y-160904731D01*
X314033108Y-160730022D01*
X314070000Y-160544552D01*
X314070000Y-160355448D01*
X317930000Y-160355448D01*
X317930000Y-160544552D01*
X317966892Y-160730022D01*
X318039259Y-160904731D01*
X318144319Y-161061964D01*
X318278036Y-161195681D01*
X318435269Y-161300741D01*
X318609978Y-161373108D01*
X318795448Y-161410000D01*
X318984552Y-161410000D01*
X319170022Y-161373108D01*
X319185000Y-161366904D01*
X319185000Y-161585751D01*
X319201423Y-161752498D01*
X319266324Y-161966446D01*
X319371716Y-162163623D01*
X319513551Y-162336449D01*
X319686377Y-162478284D01*
X319883553Y-162583676D01*
X320097501Y-162648577D01*
X320320000Y-162670491D01*
X320542498Y-162648577D01*
X320756446Y-162583676D01*
X320953623Y-162478284D01*
X321126449Y-162336449D01*
X321268284Y-162163623D01*
X321373676Y-161966447D01*
X321438577Y-161752499D01*
X321455000Y-161585752D01*
X321455000Y-160374248D01*
X321438577Y-160207501D01*
X321373676Y-159993553D01*
X321268284Y-159796377D01*
X321126449Y-159623551D01*
X320953623Y-159481716D01*
X320756447Y-159376324D01*
X320542499Y-159311423D01*
X320320000Y-159289509D01*
X320097502Y-159311423D01*
X319883554Y-159376324D01*
X319686378Y-159481716D01*
X319513552Y-159623551D01*
X319466638Y-159680715D01*
X319344731Y-159599259D01*
X319170022Y-159526892D01*
X318984552Y-159490000D01*
X318795448Y-159490000D01*
X318609978Y-159526892D01*
X318435269Y-159599259D01*
X318278036Y-159704319D01*
X318144319Y-159838036D01*
X318039259Y-159995269D01*
X317966892Y-160169978D01*
X317930000Y-160355448D01*
X314070000Y-160355448D01*
X314033108Y-160169978D01*
X313960741Y-159995269D01*
X313855681Y-159838036D01*
X313721964Y-159704319D01*
X313564731Y-159599259D01*
X313390022Y-159526892D01*
X313204552Y-159490000D01*
X313015448Y-159490000D01*
X312829978Y-159526892D01*
X312655269Y-159599259D01*
X312533362Y-159680715D01*
X312486449Y-159623551D01*
X312313623Y-159481716D01*
X312116447Y-159376324D01*
X311902499Y-159311423D01*
X311680000Y-159289509D01*
X311457502Y-159311423D01*
X311243554Y-159376324D01*
X311046378Y-159481716D01*
X310873552Y-159623551D01*
X310731717Y-159796377D01*
X310626324Y-159993553D01*
X310561423Y-160207501D01*
X310545000Y-160374248D01*
X310545000Y-160791157D01*
X309868072Y-160114229D01*
X309868072Y-158680000D01*
X309855812Y-158555518D01*
X309819502Y-158435820D01*
X309760537Y-158325506D01*
X309681185Y-158228815D01*
X309584494Y-158149463D01*
X309474180Y-158090498D01*
X309354482Y-158054188D01*
X309230000Y-158041928D01*
X307785000Y-158041928D01*
X307785000Y-156385000D01*
X310550835Y-156385000D01*
X310545000Y-156444248D01*
G04 #@! TA.AperFunction,Conductor*
D17*
G36*
X310545000Y-156444248D02*
G01*
X310545000Y-157155751D01*
X310561423Y-157322498D01*
X310626324Y-157536446D01*
X310731716Y-157733623D01*
X310873551Y-157906449D01*
X311046377Y-158048284D01*
X311243553Y-158153676D01*
X311457501Y-158218577D01*
X311680000Y-158240491D01*
X311902498Y-158218577D01*
X312116446Y-158153676D01*
X312313623Y-158048284D01*
X312486449Y-157906449D01*
X312628284Y-157733623D01*
X312733676Y-157536447D01*
X312798577Y-157322499D01*
X312815000Y-157155752D01*
X312815000Y-156444249D01*
X312809165Y-156385000D01*
X319190835Y-156385000D01*
X319185000Y-156444248D01*
X319185000Y-157155751D01*
X319201423Y-157322498D01*
X319266324Y-157536446D01*
X319371716Y-157733623D01*
X319513551Y-157906449D01*
X319686377Y-158048284D01*
X319883553Y-158153676D01*
X320097501Y-158218577D01*
X320320000Y-158240491D01*
X320542498Y-158218577D01*
X320756446Y-158153676D01*
X320953623Y-158048284D01*
X321126449Y-157906449D01*
X321268284Y-157733623D01*
X321373676Y-157536447D01*
X321438577Y-157322499D01*
X321455000Y-157155752D01*
X321455000Y-156444249D01*
X321449165Y-156385000D01*
X324215001Y-156385000D01*
X324215000Y-158166353D01*
X324215000Y-158169105D01*
X324053158Y-158102068D01*
X323766260Y-158045000D01*
X323473740Y-158045000D01*
X323186842Y-158102068D01*
X322916589Y-158214010D01*
X322673368Y-158376525D01*
X322466525Y-158583368D01*
X322304010Y-158826589D01*
X322192068Y-159096842D01*
X322135000Y-159383740D01*
X322135000Y-159676260D01*
X322192068Y-159963158D01*
X322304010Y-160233411D01*
X322466525Y-160476632D01*
X322673368Y-160683475D01*
X322916589Y-160845990D01*
X323186842Y-160957932D01*
X323473740Y-161015000D01*
X323766260Y-161015000D01*
X324053158Y-160957932D01*
X324215000Y-160890895D01*
X324215000Y-163249105D01*
X324053158Y-163182068D01*
X323766260Y-163125000D01*
X323473740Y-163125000D01*
X323186842Y-163182068D01*
X322916589Y-163294010D01*
X322673368Y-163456525D01*
X322466525Y-163663368D01*
X322304010Y-163906589D01*
X322301976Y-163911500D01*
X318710797Y-163911500D01*
X318676499Y-163908122D01*
X318642201Y-163911500D01*
X318642191Y-163911500D01*
X318539570Y-163921607D01*
X318407903Y-163961548D01*
X318407901Y-163961549D01*
X318286556Y-164026409D01*
X318206845Y-164091826D01*
X318206837Y-164091834D01*
X318180197Y-164113697D01*
X318158334Y-164140337D01*
X316661157Y-165637515D01*
X316627335Y-165555860D01*
X316525011Y-165402721D01*
X316394777Y-165272487D01*
X316241638Y-165170163D01*
X316071478Y-165099681D01*
X315927672Y-165071076D01*
X315899068Y-164927275D01*
X315828586Y-164757115D01*
X315726262Y-164603976D01*
X315596028Y-164473742D01*
X315442889Y-164371418D01*
X315272729Y-164300936D01*
X315092089Y-164265004D01*
X314907911Y-164265004D01*
X314727271Y-164300936D01*
X314557111Y-164371418D01*
X314403972Y-164473742D01*
X314315779Y-164561935D01*
X312260514Y-162506671D01*
X312313623Y-162478284D01*
X312486449Y-162336449D01*
X312628284Y-162163623D01*
X312733676Y-161966447D01*
X312798577Y-161752499D01*
X312815000Y-161585752D01*
X312815000Y-161366904D01*
X312829978Y-161373108D01*
X313015448Y-161410000D01*
X313204552Y-161410000D01*
X313390022Y-161373108D01*
X313564731Y-161300741D01*
X313721964Y-161195681D01*
X313855681Y-161061964D01*
X313960741Y-160904731D01*
X314033108Y-160730022D01*
X314070000Y-160544552D01*
X314070000Y-160355448D01*
X317930000Y-160355448D01*
X317930000Y-160544552D01*
X317966892Y-160730022D01*
X318039259Y-160904731D01*
X318144319Y-161061964D01*
X318278036Y-161195681D01*
X318435269Y-161300741D01*
X318609978Y-161373108D01*
X318795448Y-161410000D01*
X318984552Y-161410000D01*
X319170022Y-161373108D01*
X319185000Y-161366904D01*
X319185000Y-161585751D01*
X319201423Y-161752498D01*
X319266324Y-161966446D01*
X319371716Y-162163623D01*
X319513551Y-162336449D01*
X319686377Y-162478284D01*
X319883553Y-162583676D01*
X320097501Y-162648577D01*
X320320000Y-162670491D01*
X320542498Y-162648577D01*
X320756446Y-162583676D01*
X320953623Y-162478284D01*
X321126449Y-162336449D01*
X321268284Y-162163623D01*
X321373676Y-161966447D01*
X321438577Y-161752499D01*
X321455000Y-161585752D01*
X321455000Y-160374248D01*
X321438577Y-160207501D01*
X321373676Y-159993553D01*
X321268284Y-159796377D01*
X321126449Y-159623551D01*
X320953623Y-159481716D01*
X320756447Y-159376324D01*
X320542499Y-159311423D01*
X320320000Y-159289509D01*
X320097502Y-159311423D01*
X319883554Y-159376324D01*
X319686378Y-159481716D01*
X319513552Y-159623551D01*
X319466638Y-159680715D01*
X319344731Y-159599259D01*
X319170022Y-159526892D01*
X318984552Y-159490000D01*
X318795448Y-159490000D01*
X318609978Y-159526892D01*
X318435269Y-159599259D01*
X318278036Y-159704319D01*
X318144319Y-159838036D01*
X318039259Y-159995269D01*
X317966892Y-160169978D01*
X317930000Y-160355448D01*
X314070000Y-160355448D01*
X314033108Y-160169978D01*
X313960741Y-159995269D01*
X313855681Y-159838036D01*
X313721964Y-159704319D01*
X313564731Y-159599259D01*
X313390022Y-159526892D01*
X313204552Y-159490000D01*
X313015448Y-159490000D01*
X312829978Y-159526892D01*
X312655269Y-159599259D01*
X312533362Y-159680715D01*
X312486449Y-159623551D01*
X312313623Y-159481716D01*
X312116447Y-159376324D01*
X311902499Y-159311423D01*
X311680000Y-159289509D01*
X311457502Y-159311423D01*
X311243554Y-159376324D01*
X311046378Y-159481716D01*
X310873552Y-159623551D01*
X310731717Y-159796377D01*
X310626324Y-159993553D01*
X310561423Y-160207501D01*
X310545000Y-160374248D01*
X310545000Y-160791157D01*
X309868072Y-160114229D01*
X309868072Y-158680000D01*
X309855812Y-158555518D01*
X309819502Y-158435820D01*
X309760537Y-158325506D01*
X309681185Y-158228815D01*
X309584494Y-158149463D01*
X309474180Y-158090498D01*
X309354482Y-158054188D01*
X309230000Y-158041928D01*
X307785000Y-158041928D01*
X307785000Y-156385000D01*
X310550835Y-156385000D01*
X310545000Y-156444248D01*
G37*
G04 #@! TD.AperFunction*
M02*
