G04 #@! TF.GenerationSoftware,KiCad,Pcbnew,(5.1.7)-1*
G04 #@! TF.CreationDate,2021-03-17T14:13:32-05:00*
G04 #@! TF.ProjectId,keyboard,6b657962-6f61-4726-942e-6b696361645f,rev?*
G04 #@! TF.SameCoordinates,Original*
G04 #@! TF.FileFunction,Legend,Top*
G04 #@! TF.FilePolarity,Positive*
%FSLAX46Y46*%
G04 Gerber Fmt 4.6, Leading zero omitted, Abs format (unit mm)*
G04 Created by KiCad (PCBNEW (5.1.7)-1) date 2021-03-17 14:13:32*
%MOMM*%
%LPD*%
G01*
G04 APERTURE LIST*
%ADD10C,0.120000*%
%ADD11C,0.150000*%
G04 APERTURE END LIST*
D10*
X324950000Y-186200000D02*
X322290000Y-186200000D01*
X324950000Y-186200000D02*
X324950000Y-158200000D01*
X324950000Y-158200000D02*
X322290000Y-158200000D01*
X322290000Y-186200000D02*
X322290000Y-158200000D01*
X322290000Y-188800000D02*
X322290000Y-187470000D01*
X323620000Y-188800000D02*
X322290000Y-188800000D01*
D11*
X310802500Y-171402500D02*
X310802500Y-171977500D01*
X321152500Y-171402500D02*
X321152500Y-172077500D01*
X321152500Y-181752500D02*
X321152500Y-181077500D01*
X310802500Y-181752500D02*
X310802500Y-181077500D01*
X310802500Y-171402500D02*
X311477500Y-171402500D01*
X310802500Y-181752500D02*
X311477500Y-181752500D01*
X321152500Y-181752500D02*
X320477500Y-181752500D01*
X321152500Y-171402500D02*
X320477500Y-171402500D01*
X310802500Y-171977500D02*
X309527500Y-171977500D01*
D10*
X315940000Y-164187836D02*
X315940000Y-163972164D01*
X316660000Y-164187836D02*
X316660000Y-163972164D01*
X321460000Y-168812164D02*
X321460000Y-169027836D01*
X320740000Y-168812164D02*
X320740000Y-169027836D01*
X313740000Y-164187836D02*
X313740000Y-163972164D01*
X314460000Y-164187836D02*
X314460000Y-163972164D01*
X314840000Y-164187836D02*
X314840000Y-163972164D01*
X315560000Y-164187836D02*
X315560000Y-163972164D01*
X317040000Y-164187836D02*
X317040000Y-163972164D01*
X317760000Y-164187836D02*
X317760000Y-163972164D01*
X310492164Y-185440000D02*
X310707836Y-185440000D01*
X310492164Y-186160000D02*
X310707836Y-186160000D01*
X310360000Y-184172164D02*
X310360000Y-184387836D01*
X309640000Y-184172164D02*
X309640000Y-184387836D01*
X309740000Y-171127836D02*
X309740000Y-170912164D01*
X310460000Y-171127836D02*
X310460000Y-170912164D01*
X313127836Y-184160000D02*
X312912164Y-184160000D01*
X313127836Y-183440000D02*
X312912164Y-183440000D01*
X319640000Y-169027836D02*
X319640000Y-168812164D01*
X320360000Y-169027836D02*
X320360000Y-168812164D01*
X311460000Y-184172164D02*
X311460000Y-184387836D01*
X310740000Y-184172164D02*
X310740000Y-184387836D01*
X313190000Y-185537836D02*
X313190000Y-185322164D01*
X313910000Y-185537836D02*
X313910000Y-185322164D01*
X319160000Y-185352164D02*
X319160000Y-185567836D01*
X318440000Y-185352164D02*
X318440000Y-185567836D01*
X318862500Y-172967500D02*
X319587500Y-172967500D01*
X319587500Y-172967500D02*
X319587500Y-173692500D01*
X313092500Y-180187500D02*
X312367500Y-180187500D01*
X312367500Y-180187500D02*
X312367500Y-179462500D01*
X318862500Y-180187500D02*
X319587500Y-180187500D01*
X319587500Y-180187500D02*
X319587500Y-179462500D01*
X313092500Y-172967500D02*
X312367500Y-172967500D01*
X318270000Y-187140000D02*
X318270000Y-183840000D01*
X318270000Y-183840000D02*
X314270000Y-183840000D01*
X307050000Y-160800000D02*
X309710000Y-160800000D01*
X307050000Y-160800000D02*
X307050000Y-188800000D01*
X307050000Y-188800000D02*
X309710000Y-188800000D01*
X309710000Y-160800000D02*
X309710000Y-188800000D01*
X309710000Y-158200000D02*
X309710000Y-159530000D01*
X308380000Y-158200000D02*
X309710000Y-158200000D01*
X310190000Y-165902064D02*
X310190000Y-164697936D01*
X312010000Y-165902064D02*
X312010000Y-164697936D01*
D11*
X323286666Y-189692380D02*
X323286666Y-190406666D01*
X323239047Y-190549523D01*
X323143809Y-190644761D01*
X323000952Y-190692380D01*
X322905714Y-190692380D01*
X323715238Y-189787619D02*
X323762857Y-189740000D01*
X323858095Y-189692380D01*
X324096190Y-189692380D01*
X324191428Y-189740000D01*
X324239047Y-189787619D01*
X324286666Y-189882857D01*
X324286666Y-189978095D01*
X324239047Y-190120952D01*
X323667619Y-190692380D01*
X324286666Y-190692380D01*
X315215595Y-168579880D02*
X315215595Y-169389404D01*
X315263214Y-169484642D01*
X315310833Y-169532261D01*
X315406071Y-169579880D01*
X315596547Y-169579880D01*
X315691785Y-169532261D01*
X315739404Y-169484642D01*
X315787023Y-169389404D01*
X315787023Y-168579880D01*
X316215595Y-168675119D02*
X316263214Y-168627500D01*
X316358452Y-168579880D01*
X316596547Y-168579880D01*
X316691785Y-168627500D01*
X316739404Y-168675119D01*
X316787023Y-168770357D01*
X316787023Y-168865595D01*
X316739404Y-169008452D01*
X316167976Y-169579880D01*
X316787023Y-169579880D01*
X315592380Y-164246666D02*
X315116190Y-164580000D01*
X315592380Y-164818095D02*
X314592380Y-164818095D01*
X314592380Y-164437142D01*
X314640000Y-164341904D01*
X314687619Y-164294285D01*
X314782857Y-164246666D01*
X314925714Y-164246666D01*
X315020952Y-164294285D01*
X315068571Y-164341904D01*
X315116190Y-164437142D01*
X315116190Y-164818095D01*
X314925714Y-163389523D02*
X315592380Y-163389523D01*
X314544761Y-163627619D02*
X315259047Y-163865714D01*
X315259047Y-163246666D01*
X322712380Y-169086666D02*
X322236190Y-169420000D01*
X322712380Y-169658095D02*
X321712380Y-169658095D01*
X321712380Y-169277142D01*
X321760000Y-169181904D01*
X321807619Y-169134285D01*
X321902857Y-169086666D01*
X322045714Y-169086666D01*
X322140952Y-169134285D01*
X322188571Y-169181904D01*
X322236190Y-169277142D01*
X322236190Y-169658095D01*
X321712380Y-168229523D02*
X321712380Y-168420000D01*
X321760000Y-168515238D01*
X321807619Y-168562857D01*
X321950476Y-168658095D01*
X322140952Y-168705714D01*
X322521904Y-168705714D01*
X322617142Y-168658095D01*
X322664761Y-168610476D01*
X322712380Y-168515238D01*
X322712380Y-168324761D01*
X322664761Y-168229523D01*
X322617142Y-168181904D01*
X322521904Y-168134285D01*
X322283809Y-168134285D01*
X322188571Y-168181904D01*
X322140952Y-168229523D01*
X322093333Y-168324761D01*
X322093333Y-168515238D01*
X322140952Y-168610476D01*
X322188571Y-168658095D01*
X322283809Y-168705714D01*
X313392380Y-164246666D02*
X312916190Y-164580000D01*
X313392380Y-164818095D02*
X312392380Y-164818095D01*
X312392380Y-164437142D01*
X312440000Y-164341904D01*
X312487619Y-164294285D01*
X312582857Y-164246666D01*
X312725714Y-164246666D01*
X312820952Y-164294285D01*
X312868571Y-164341904D01*
X312916190Y-164437142D01*
X312916190Y-164818095D01*
X312392380Y-163341904D02*
X312392380Y-163818095D01*
X312868571Y-163865714D01*
X312820952Y-163818095D01*
X312773333Y-163722857D01*
X312773333Y-163484761D01*
X312820952Y-163389523D01*
X312868571Y-163341904D01*
X312963809Y-163294285D01*
X313201904Y-163294285D01*
X313297142Y-163341904D01*
X313344761Y-163389523D01*
X313392380Y-163484761D01*
X313392380Y-163722857D01*
X313344761Y-163818095D01*
X313297142Y-163865714D01*
X314492380Y-164246666D02*
X314016190Y-164580000D01*
X314492380Y-164818095D02*
X313492380Y-164818095D01*
X313492380Y-164437142D01*
X313540000Y-164341904D01*
X313587619Y-164294285D01*
X313682857Y-164246666D01*
X313825714Y-164246666D01*
X313920952Y-164294285D01*
X313968571Y-164341904D01*
X314016190Y-164437142D01*
X314016190Y-164818095D01*
X313492380Y-163913333D02*
X313492380Y-163294285D01*
X313873333Y-163627619D01*
X313873333Y-163484761D01*
X313920952Y-163389523D01*
X313968571Y-163341904D01*
X314063809Y-163294285D01*
X314301904Y-163294285D01*
X314397142Y-163341904D01*
X314444761Y-163389523D01*
X314492380Y-163484761D01*
X314492380Y-163770476D01*
X314444761Y-163865714D01*
X314397142Y-163913333D01*
X316692380Y-164246666D02*
X316216190Y-164580000D01*
X316692380Y-164818095D02*
X315692380Y-164818095D01*
X315692380Y-164437142D01*
X315740000Y-164341904D01*
X315787619Y-164294285D01*
X315882857Y-164246666D01*
X316025714Y-164246666D01*
X316120952Y-164294285D01*
X316168571Y-164341904D01*
X316216190Y-164437142D01*
X316216190Y-164818095D01*
X315787619Y-163865714D02*
X315740000Y-163818095D01*
X315692380Y-163722857D01*
X315692380Y-163484761D01*
X315740000Y-163389523D01*
X315787619Y-163341904D01*
X315882857Y-163294285D01*
X315978095Y-163294285D01*
X316120952Y-163341904D01*
X316692380Y-163913333D01*
X316692380Y-163294285D01*
X310433333Y-185092380D02*
X310100000Y-184616190D01*
X309861904Y-185092380D02*
X309861904Y-184092380D01*
X310242857Y-184092380D01*
X310338095Y-184140000D01*
X310385714Y-184187619D01*
X310433333Y-184282857D01*
X310433333Y-184425714D01*
X310385714Y-184520952D01*
X310338095Y-184568571D01*
X310242857Y-184616190D01*
X309861904Y-184616190D01*
X311385714Y-185092380D02*
X310814285Y-185092380D01*
X311100000Y-185092380D02*
X311100000Y-184092380D01*
X311004761Y-184235238D01*
X310909523Y-184330476D01*
X310814285Y-184378095D01*
X311517142Y-184446666D02*
X311564761Y-184494285D01*
X311612380Y-184637142D01*
X311612380Y-184732380D01*
X311564761Y-184875238D01*
X311469523Y-184970476D01*
X311374285Y-185018095D01*
X311183809Y-185065714D01*
X311040952Y-185065714D01*
X310850476Y-185018095D01*
X310755238Y-184970476D01*
X310660000Y-184875238D01*
X310612380Y-184732380D01*
X310612380Y-184637142D01*
X310660000Y-184494285D01*
X310707619Y-184446666D01*
X310612380Y-184113333D02*
X310612380Y-183446666D01*
X311612380Y-183875238D01*
X309297142Y-171186666D02*
X309344761Y-171234285D01*
X309392380Y-171377142D01*
X309392380Y-171472380D01*
X309344761Y-171615238D01*
X309249523Y-171710476D01*
X309154285Y-171758095D01*
X308963809Y-171805714D01*
X308820952Y-171805714D01*
X308630476Y-171758095D01*
X308535238Y-171710476D01*
X308440000Y-171615238D01*
X308392380Y-171472380D01*
X308392380Y-171377142D01*
X308440000Y-171234285D01*
X308487619Y-171186666D01*
X308392380Y-170329523D02*
X308392380Y-170520000D01*
X308440000Y-170615238D01*
X308487619Y-170662857D01*
X308630476Y-170758095D01*
X308820952Y-170805714D01*
X309201904Y-170805714D01*
X309297142Y-170758095D01*
X309344761Y-170710476D01*
X309392380Y-170615238D01*
X309392380Y-170424761D01*
X309344761Y-170329523D01*
X309297142Y-170281904D01*
X309201904Y-170234285D01*
X308963809Y-170234285D01*
X308868571Y-170281904D01*
X308820952Y-170329523D01*
X308773333Y-170424761D01*
X308773333Y-170615238D01*
X308820952Y-170710476D01*
X308868571Y-170758095D01*
X308963809Y-170805714D01*
X312853333Y-185317142D02*
X312805714Y-185364761D01*
X312662857Y-185412380D01*
X312567619Y-185412380D01*
X312424761Y-185364761D01*
X312329523Y-185269523D01*
X312281904Y-185174285D01*
X312234285Y-184983809D01*
X312234285Y-184840952D01*
X312281904Y-184650476D01*
X312329523Y-184555238D01*
X312424761Y-184460000D01*
X312567619Y-184412380D01*
X312662857Y-184412380D01*
X312805714Y-184460000D01*
X312853333Y-184507619D01*
X313758095Y-184412380D02*
X313281904Y-184412380D01*
X313234285Y-184888571D01*
X313281904Y-184840952D01*
X313377142Y-184793333D01*
X313615238Y-184793333D01*
X313710476Y-184840952D01*
X313758095Y-184888571D01*
X313805714Y-184983809D01*
X313805714Y-185221904D01*
X313758095Y-185317142D01*
X313710476Y-185364761D01*
X313615238Y-185412380D01*
X313377142Y-185412380D01*
X313281904Y-185364761D01*
X313234285Y-185317142D01*
X319197142Y-169086666D02*
X319244761Y-169134285D01*
X319292380Y-169277142D01*
X319292380Y-169372380D01*
X319244761Y-169515238D01*
X319149523Y-169610476D01*
X319054285Y-169658095D01*
X318863809Y-169705714D01*
X318720952Y-169705714D01*
X318530476Y-169658095D01*
X318435238Y-169610476D01*
X318340000Y-169515238D01*
X318292380Y-169372380D01*
X318292380Y-169277142D01*
X318340000Y-169134285D01*
X318387619Y-169086666D01*
X318625714Y-168229523D02*
X319292380Y-168229523D01*
X318244761Y-168467619D02*
X318959047Y-168705714D01*
X318959047Y-168086666D01*
X312617142Y-184446666D02*
X312664761Y-184494285D01*
X312712380Y-184637142D01*
X312712380Y-184732380D01*
X312664761Y-184875238D01*
X312569523Y-184970476D01*
X312474285Y-185018095D01*
X312283809Y-185065714D01*
X312140952Y-185065714D01*
X311950476Y-185018095D01*
X311855238Y-184970476D01*
X311760000Y-184875238D01*
X311712380Y-184732380D01*
X311712380Y-184637142D01*
X311760000Y-184494285D01*
X311807619Y-184446666D01*
X311712380Y-184113333D02*
X311712380Y-183494285D01*
X312093333Y-183827619D01*
X312093333Y-183684761D01*
X312140952Y-183589523D01*
X312188571Y-183541904D01*
X312283809Y-183494285D01*
X312521904Y-183494285D01*
X312617142Y-183541904D01*
X312664761Y-183589523D01*
X312712380Y-183684761D01*
X312712380Y-183970476D01*
X312664761Y-184065714D01*
X312617142Y-184113333D01*
X312747142Y-185596666D02*
X312794761Y-185644285D01*
X312842380Y-185787142D01*
X312842380Y-185882380D01*
X312794761Y-186025238D01*
X312699523Y-186120476D01*
X312604285Y-186168095D01*
X312413809Y-186215714D01*
X312270952Y-186215714D01*
X312080476Y-186168095D01*
X311985238Y-186120476D01*
X311890000Y-186025238D01*
X311842380Y-185882380D01*
X311842380Y-185787142D01*
X311890000Y-185644285D01*
X311937619Y-185596666D01*
X311937619Y-185215714D02*
X311890000Y-185168095D01*
X311842380Y-185072857D01*
X311842380Y-184834761D01*
X311890000Y-184739523D01*
X311937619Y-184691904D01*
X312032857Y-184644285D01*
X312128095Y-184644285D01*
X312270952Y-184691904D01*
X312842380Y-185263333D01*
X312842380Y-184644285D01*
X320317142Y-185626666D02*
X320364761Y-185674285D01*
X320412380Y-185817142D01*
X320412380Y-185912380D01*
X320364761Y-186055238D01*
X320269523Y-186150476D01*
X320174285Y-186198095D01*
X319983809Y-186245714D01*
X319840952Y-186245714D01*
X319650476Y-186198095D01*
X319555238Y-186150476D01*
X319460000Y-186055238D01*
X319412380Y-185912380D01*
X319412380Y-185817142D01*
X319460000Y-185674285D01*
X319507619Y-185626666D01*
X320412380Y-184674285D02*
X320412380Y-185245714D01*
X320412380Y-184960000D02*
X319412380Y-184960000D01*
X319555238Y-185055238D01*
X319650476Y-185150476D01*
X319698095Y-185245714D01*
X315215595Y-171209880D02*
X315215595Y-172019404D01*
X315263214Y-172114642D01*
X315310833Y-172162261D01*
X315406071Y-172209880D01*
X315596547Y-172209880D01*
X315691785Y-172162261D01*
X315739404Y-172114642D01*
X315787023Y-172019404D01*
X315787023Y-171209880D01*
X316787023Y-172209880D02*
X316215595Y-172209880D01*
X316501309Y-172209880D02*
X316501309Y-171209880D01*
X316406071Y-171352738D01*
X316310833Y-171447976D01*
X316215595Y-171495595D01*
X315793809Y-187916190D02*
X315793809Y-188392380D01*
X315460476Y-187392380D02*
X315793809Y-187916190D01*
X316127142Y-187392380D01*
X316984285Y-188392380D02*
X316412857Y-188392380D01*
X316698571Y-188392380D02*
X316698571Y-187392380D01*
X316603333Y-187535238D01*
X316508095Y-187630476D01*
X316412857Y-187678095D01*
X314261904Y-162902380D02*
X314261904Y-163711904D01*
X314309523Y-163807142D01*
X314357142Y-163854761D01*
X314452380Y-163902380D01*
X314642857Y-163902380D01*
X314738095Y-163854761D01*
X314785714Y-163807142D01*
X314833333Y-163711904D01*
X314833333Y-162902380D01*
X315261904Y-163854761D02*
X315404761Y-163902380D01*
X315642857Y-163902380D01*
X315738095Y-163854761D01*
X315785714Y-163807142D01*
X315833333Y-163711904D01*
X315833333Y-163616666D01*
X315785714Y-163521428D01*
X315738095Y-163473809D01*
X315642857Y-163426190D01*
X315452380Y-163378571D01*
X315357142Y-163330952D01*
X315309523Y-163283333D01*
X315261904Y-163188095D01*
X315261904Y-163092857D01*
X315309523Y-162997619D01*
X315357142Y-162950000D01*
X315452380Y-162902380D01*
X315690476Y-162902380D01*
X315833333Y-162950000D01*
X316595238Y-163378571D02*
X316738095Y-163426190D01*
X316785714Y-163473809D01*
X316833333Y-163569047D01*
X316833333Y-163711904D01*
X316785714Y-163807142D01*
X316738095Y-163854761D01*
X316642857Y-163902380D01*
X316261904Y-163902380D01*
X316261904Y-162902380D01*
X316595238Y-162902380D01*
X316690476Y-162950000D01*
X316738095Y-162997619D01*
X316785714Y-163092857D01*
X316785714Y-163188095D01*
X316738095Y-163283333D01*
X316690476Y-163330952D01*
X316595238Y-163378571D01*
X316261904Y-163378571D01*
X317785714Y-163902380D02*
X317214285Y-163902380D01*
X317500000Y-163902380D02*
X317500000Y-162902380D01*
X317404761Y-163045238D01*
X317309523Y-163140476D01*
X317214285Y-163188095D01*
X308046666Y-156212380D02*
X308046666Y-156926666D01*
X307999047Y-157069523D01*
X307903809Y-157164761D01*
X307760952Y-157212380D01*
X307665714Y-157212380D01*
X309046666Y-157212380D02*
X308475238Y-157212380D01*
X308760952Y-157212380D02*
X308760952Y-156212380D01*
X308665714Y-156355238D01*
X308570476Y-156450476D01*
X308475238Y-156498095D01*
X309208571Y-165633333D02*
X309208571Y-165966666D01*
X309732380Y-165966666D02*
X308732380Y-165966666D01*
X308732380Y-165490476D01*
X309732380Y-164585714D02*
X309732380Y-165157142D01*
X309732380Y-164871428D02*
X308732380Y-164871428D01*
X308875238Y-164966666D01*
X308970476Y-165061904D01*
X309018095Y-165157142D01*
M02*
