M48
; DRILL file {KiCad (5.1.7)-1} date 03/17/21 14:13:35
; FORMAT={-:-/ absolute / inch / decimal}
; #@! TF.CreationDate,2021-03-17T14:13:35-05:00
; #@! TF.GenerationSoftware,Kicad,Pcbnew,(5.1.7)-1
; #@! TF.FileFunction,Plated,1,4,PTH
FMAT,2
INCH
T1C0.0118
T2C0.0236
T3C0.0394
%
G90
G05
T1
X12.1142Y-6.8307
X12.1616Y-6.9297
X12.1759Y-7.2248
X12.1811Y-6.7402
X12.2087Y-7.3386
X12.2323Y-7.2087
X12.2383Y-7.1399
X12.248Y-7.3923
X12.2502Y-6.8574
X12.2519Y-7.184
X12.2642Y-6.9043
X12.2657Y-6.9868
X12.2664Y-7.0218
X12.2717Y-7.0787
X12.2813Y-7.2725
X12.3031Y-6.5762
X12.3071Y-7.126
X12.3086Y-7.2883
X12.311Y-6.8425
X12.315Y-6.6206
X12.3346Y-6.7795
X12.3438Y-6.6332
X12.3661Y-7.2255
X12.3933Y-7.1256
X12.4016Y-6.5039
X12.433Y-6.5354
X12.4685Y-6.5585
X12.4743Y-7.2186
X12.5058Y-7.2164
X12.5116Y-7.1271
X12.5177Y-6.6274
X12.5428Y-6.7767
X12.5433Y-6.6457
X12.5528Y-7.1226
X12.5723Y-7.0979
X12.5866Y-6.3937
X12.6145Y-6.8465
X12.6154Y-7.0787
X12.6182Y-6.9532
X12.6184Y-6.9215
X12.6231Y-6.8904
X12.6235Y-6.7008
X12.6306Y-7.0478
X12.6316Y-6.9846
X12.674Y-6.6378
T3
X12.7409Y-6.2807
X12.7409Y-6.3807
X12.7409Y-6.4807
X12.7409Y-6.5807
X12.7409Y-6.6807
X12.7409Y-6.7807
X12.7409Y-6.8807
X12.7409Y-6.9807
X12.7409Y-7.0807
X12.7409Y-7.1807
X12.7409Y-7.2807
X12.7409Y-7.3807
X12.1409Y-6.2807
X12.1409Y-6.3807
X12.1409Y-6.4807
X12.1409Y-6.5807
X12.1409Y-6.6807
X12.1409Y-6.7807
X12.1409Y-6.8807
X12.1409Y-6.9807
X12.1409Y-7.0807
X12.1409Y-7.1807
X12.1409Y-7.2807
X12.1409Y-7.3807
T2
G00X12.2709Y-6.185
M15
G01X12.2709Y-6.1614
M16
G05
G00X12.2709Y-6.3594
M15
G01X12.2709Y-6.3161
M16
G05
G00X12.611Y-6.185
M15
G01X12.611Y-6.1614
M16
G05
G00X12.611Y-6.3594
M15
G01X12.611Y-6.3161
M16
G05
T0
M30
